<svg xmlns="http://www.w3.org/2000/svg" width="396.229" height="397.741" viewBox="0 0 396.229 397.741"><g transform="translate(-5.233 -4.95)"><path d="M103.912,106.927a37.033,37.033,0,0,0-18.569-5.8A43.186,43.186,0,0,0,66.005,65.592,6.67,6.67,0,0,0,58.624,76.7a29.888,29.888,0,0,1,13.394,24.953c0,.472-.04.939-.061,1.411a37.224,37.224,0,0,0-25.268,35.191,6.669,6.669,0,1,0,13.338,0,23.852,23.852,0,0,1,36.688-20.1,6.671,6.671,0,0,0,7.2-11.233Z" transform="translate(69.133 99.27)" fill="#0fbf44"/><path d="M49.4,53.315A18.1,18.1,0,0,1,67.717,79.242a6.67,6.67,0,1,0,11.978,5.871,31.324,31.324,0,0,0,3.172-15.035,36.277,36.277,0,0,0,26.652-19.314,6.669,6.669,0,0,0-11.876-6.071A23,23,0,0,1,79.734,57.117c-.077.008-.155.008-.232.016A31.359,31.359,0,0,0,47.9,40.065,6.668,6.668,0,0,0,49.4,53.315Z" transform="translate(61.286 58.216)" fill="#0fbf44"/><path d="M88.143,116.015a22.974,22.974,0,0,1-20.351,7.811c-.077-.011-.152-.029-.227-.04A31.366,31.366,0,0,0,40.921,99.692a6.67,6.67,0,0,0-1.681,13.234A18.1,18.1,0,0,1,50.866,142.46a6.668,6.668,0,0,0,10.236,8.55,31.28,31.28,0,0,0,6.642-13.8c1,.08,1.987.136,2.977.136a36.307,36.307,0,0,0,27.514-12.612,6.668,6.668,0,1,0-10.092-8.718Z" transform="translate(46.99 157.905)" fill="#0fbf44"/><path d="M371.416,212.181a30.079,30.079,0,0,0-28.538,20.709H204.189V174.754h138.3a30.043,30.043,0,1,0,0-18.673h-138.3V122.426h92.884a40.206,40.206,0,0,0,40.161-40.161V63.531a30.045,30.045,0,1,0-18.673,0V82.265a21.512,21.512,0,0,1-21.488,21.488H204.189V70.1h27.644a30.043,30.043,0,1,0,0-18.673H203.677a45.476,45.476,0,0,0-90.5,6.458c0,.715.088,1.414.12,2.123a64.68,64.68,0,0,0-74.557,79A48.326,48.326,0,0,0,27.294,217.5,64.09,64.09,0,0,0,48.4,326.467a52.174,52.174,0,0,0,51.5,61.187,51.956,51.956,0,0,0,20.541-4.217,50.748,50.748,0,0,0,82.373-27.226h29.4a30.043,30.043,0,1,0,0-18.673H204.189V303.886h93.27a21.512,21.512,0,0,1,21.488,21.488v18.735a30.045,30.045,0,1,0,18.673,0V325.373a40.208,40.208,0,0,0-40.161-40.161h-93.27V251.56H342.878a30.037,30.037,0,1,0,28.538-39.379Zm-.39-58.135a11.369,11.369,0,1,1-11.372,11.369A11.382,11.382,0,0,1,371.027,154.046ZM327.894,23.623a11.369,11.369,0,1,1-11.372,11.369A11.382,11.382,0,0,1,327.894,23.623Zm.389,360.395a11.371,11.371,0,1,1,11.372-11.369A11.383,11.383,0,0,1,328.284,384.018ZM260.372,49.4A11.369,11.369,0,1,1,249,60.764,11.383,11.383,0,0,1,260.372,49.4Zm-74.856,295.3a32.182,32.182,0,0,1-48.676,27.652A52.128,52.128,0,0,0,152.2,335.366a9.337,9.337,0,0,0-18.673,0,33.615,33.615,0,1,1-66.768-5.423c.875.035,1.753.067,2.636.067a64.518,64.518,0,0,0,12.917-1.3,9.336,9.336,0,0,0-3.74-18.295,46.161,46.161,0,0,1-9.177.926,45.483,45.483,0,0,1,0-90.966,9.337,9.337,0,0,0,0-18.673,63.789,63.789,0,0,0-25.356,5.234A29.623,29.623,0,0,1,45.7,156.414a64.683,64.683,0,0,0,7.68,10.649,9.338,9.338,0,0,0,13.922-12.447,46.214,46.214,0,0,1,66.4-64.188,9.338,9.338,0,1,0,12.909-13.5,64.9,64.9,0,0,0-13.034-9.6,26.829,26.829,0,1,1,51.933-9.462V344.692Zm75.245-9.185a11.371,11.371,0,1,1-11.372,11.369A11.383,11.383,0,0,1,260.761,335.507Zm110.655-81.914a11.371,11.371,0,1,1,11.372-11.369A11.382,11.382,0,0,1,371.416,253.593Z" transform="translate(0 0)" fill="#0fbf44"/></g></svg>