<svg xmlns="http://www.w3.org/2000/svg" width="185.284" height="185.291" viewBox="0 0 185.284 185.291"><g transform="translate(-13 -123.998)"><g transform="translate(13 123.998)"><path d="M184.2,156.408h-3.088V48.325a15.459,15.459,0,0,0-15.44-15.44H145.033a21.65,21.65,0,0,0-17.448-12.253,18.587,18.587,0,0,0-17.5-12.451,17.794,17.794,0,0,0-4.632.618A24.661,24.661,0,0,0,64.558,20.533a21.6,21.6,0,0,0-20.3,12.352H23.617a15.459,15.459,0,0,0-15.44,15.44V156.408H5.088A3.088,3.088,0,0,0,2,159.5v12.352a15.459,15.459,0,0,0,15.44,15.44h154.4a15.459,15.459,0,0,0,15.44-15.44V159.5A3.088,3.088,0,0,0,184.2,156.408ZM145.024,51.413h14.468A3.088,3.088,0,0,1,162.58,54.5v89.554H26.7V54.5a3.088,3.088,0,0,1,3.088-3.088H44.26a21.617,21.617,0,0,0,19.5,12.352h6.176V76.118H42.145a3.088,3.088,0,0,0-3.088,3.088v55.585a3.088,3.088,0,0,0,3.088,3.088h61.761a3.088,3.088,0,0,0,3.088-3.088V79.206a3.088,3.088,0,0,0-3.088-3.088H76.114V63.766h37.057v58.673a3.088,3.088,0,0,0,3.088,3.088h16.009a9.264,9.264,0,1,0,0-6.176h-12.92V63.766h6.176V91.558a3.088,3.088,0,0,0,3.088,3.088h3.656a9.264,9.264,0,1,0,0-6.176H131.7V62.839a21.691,21.691,0,0,0,13.325-11.426ZM100.818,82.294V131.7H45.233V82.294Zm37.057,40.145a3.088,3.088,0,1,1,3.088,3.088A3.088,3.088,0,0,1,137.875,122.439Zm0-30.881a3.088,3.088,0,1,1,3.088,3.088A3.088,3.088,0,0,1,137.875,91.558ZM63.761,26.709a15.283,15.283,0,0,1,2.742.259,3.088,3.088,0,0,0,3.607-2.646,18.491,18.491,0,0,1,32.159-9.937,3.088,3.088,0,0,0,3.4.825,12.312,12.312,0,0,1,16.521,9.03,3.088,3.088,0,0,0,3.026,2.47,3.338,3.338,0,0,0,.355-.015,15.448,15.448,0,0,1-.046,30.9H63.761a15.44,15.44,0,1,1,0-30.881ZM14.352,48.325a9.264,9.264,0,0,1,9.264-9.264H42.392a19.424,19.424,0,0,0,0,6.176h-12.6A9.264,9.264,0,0,0,20.528,54.5v92.642a3.088,3.088,0,0,0,3.088,3.088H165.668a3.088,3.088,0,0,0,3.088-3.088V54.5a9.264,9.264,0,0,0-9.264-9.264h-12.6a19.545,19.545,0,0,0,0-6.176h18.775a9.264,9.264,0,0,1,9.264,9.264V156.408H125.523a3.088,3.088,0,0,0-3.088,3.088v6.176a3.088,3.088,0,0,1-3.088,3.088H69.938a3.088,3.088,0,0,1-3.088-3.088V159.5a3.088,3.088,0,0,0-3.088-3.088H14.352ZM181.108,171.848a9.264,9.264,0,0,1-9.264,9.264H17.44a9.264,9.264,0,0,1-9.264-9.264v-9.264h52.5v3.088a9.264,9.264,0,0,0,9.264,9.264h49.409a9.264,9.264,0,0,0,9.264-9.264v-3.088h52.5Z" transform="translate(-2 -1.998)" fill="#0fbf44"/><rect width="28" height="7" transform="translate(78.643 153.645)" fill="#0fbf44"/><rect width="7" height="7" transform="translate(17.643 167.645)" fill="#0fbf44"/><rect width="4" height="7" transform="translate(31.643 167.645)" fill="#0fbf44"/><rect width="7" height="7" transform="translate(42.643 167.645)" fill="#0fbf44"/><rect width="7" height="7" transform="translate(135.643 167.645)" fill="#0fbf44"/><rect width="4" height="7" transform="translate(149.643 167.645)" fill="#0fbf44"/><rect width="7" height="7" transform="translate(160.643 167.645)" fill="#0fbf44"/><path d="M30.257,60.364,34.623,56,24.454,45.829,34.623,35.66l-4.367-4.367L17.9,43.645a3.088,3.088,0,0,0,0,4.367Z" transform="translate(29.322 59.172)" fill="#0fbf44"/><path d="M31.66,60.364,44.012,48.012a3.088,3.088,0,0,0,0-4.367L31.66,31.293,27.293,35.66,37.462,45.829,27.293,56Z" transform="translate(50.814 59.172)" fill="#0fbf44"/><rect width="37.569" height="6.176" transform="translate(64.89 123.022) rotate(-80.528)" fill="#0fbf44"/></g></g></svg>