<svg xmlns="http://www.w3.org/2000/svg" width="382.845" height="382.861" viewBox="0 0 382.845 382.861"><g transform="translate(0)"><g transform="translate(0 0)"><path d="M379.1,161.544l-30.065-3.107c-.944-4.217-2.067-8.409-3.362-12.544l24.495-17.731a6.38,6.38,0,0,0,1.786-8.352l-25.522-44.2A6.38,6.38,0,0,0,338.3,72.97L310.676,85.329q-4.383-4.753-9.162-9.162l12.359-27.634a6.38,6.38,0,0,0-2.635-8.129l-44.2-25.522a6.381,6.381,0,0,0-8.358,1.78L240.95,41.151c-4.135-1.276-8.295-2.418-12.544-3.363L225.3,7.743A6.38,6.38,0,0,0,218.95,2H167.906a6.38,6.38,0,0,0-6.38,5.742l-3.107,30.065c-4.217.944-8.409,2.074-12.544,3.363L128.182,16.675a6.381,6.381,0,0,0-8.358-1.78l-44.2,25.522a6.38,6.38,0,0,0-2.635,8.129L85.343,76.18q-4.766,4.39-9.162,9.162L48.547,72.97a6.38,6.38,0,0,0-8.129,2.635L14.9,119.809a6.38,6.38,0,0,0,1.787,8.352l24.482,17.731c-1.276,4.135-2.418,8.295-3.363,12.544L7.756,161.544a6.4,6.4,0,0,0,1.276,12.729l34.7-3.586a6.38,6.38,0,0,0,5.6-5.143,147.249,147.249,0,0,1,5.353-19.977,6.381,6.381,0,0,0-2.271-7.28L28.812,121.207,48.591,86.969,75.224,98.881a6.38,6.38,0,0,0,7.421-1.646,147.46,147.46,0,0,1,14.6-14.6A6.38,6.38,0,0,0,98.9,75.21L86.983,48.578,121.22,28.8,138.3,52.406a6.38,6.38,0,0,0,7.255,2.291,146.173,146.173,0,0,1,19.971-5.353,6.38,6.38,0,0,0,5.1-5.608l3.018-28.974h39.559l3,28.974a6.38,6.38,0,0,0,5.1,5.608A146.172,146.172,0,0,1,241.282,54.7a6.381,6.381,0,0,0,7.274-2.291L265.636,28.8l34.238,19.779L287.962,75.21a6.381,6.381,0,0,0,1.646,7.421,147.464,147.464,0,0,1,14.6,14.6,6.381,6.381,0,0,0,7.421,1.646l26.632-11.912,19.779,34.238-23.608,17.081a6.38,6.38,0,0,0-2.291,7.248,147.246,147.246,0,0,1,5.353,19.977,6.38,6.38,0,0,0,5.6,5.143l28.98,2.98v39.559l-28.98,2.992a6.38,6.38,0,0,0-5.6,5.143,147.251,147.251,0,0,1-5.353,19.977,6.38,6.38,0,0,0,2.291,7.235l23.608,17.081L338.265,299.86l-26.632-11.912a6.381,6.381,0,0,0-7.421,1.646,147.459,147.459,0,0,1-14.6,14.6,6.381,6.381,0,0,0-1.646,7.421l11.912,26.632-34.238,19.779-17.081-23.608a6.38,6.38,0,0,0-7.255-2.291,146.175,146.175,0,0,1-19.971,5.353,6.381,6.381,0,0,0-5.1,5.608L212.6,377.811a6.38,6.38,0,0,0,5.711,7.019c.223,0,.447.032.638.032a6.381,6.381,0,0,0,6.342-5.742l3.107-30.065c4.217-.944,8.409-2.074,12.544-3.363l17.731,24.463a6.381,6.381,0,0,0,8.358,1.78l44.2-25.522a6.38,6.38,0,0,0,2.635-8.129l-12.359-27.621q4.766-4.39,9.162-9.162l27.634,12.359a6.38,6.38,0,0,0,8.129-2.635l25.522-44.2a6.381,6.381,0,0,0-1.787-8.352l-24.482-17.731c1.276-4.135,2.418-8.295,3.363-12.544l30.065-3.107a6.38,6.38,0,0,0,5.723-6.349V167.893a6.38,6.38,0,0,0-5.743-6.349Z" transform="translate(-1.997 -2)" fill="#0fbf44"/><path d="M193.415,216.034h-19.78l-3-28.974a6.38,6.38,0,0,0-5.1-5.608,146.171,146.171,0,0,1-19.971-5.353,6.38,6.38,0,0,0-7.255,2.291L121.226,202l-34.238-19.78L98.9,155.585a6.38,6.38,0,0,0-1.646-7.421,147.464,147.464,0,0,1-14.6-14.6,6.38,6.38,0,0,0-7.421-1.646L48.578,143.826,28.8,109.588,52.406,92.508A6.381,6.381,0,0,0,54.7,85.26a147.249,147.249,0,0,1-5.353-19.977,6.38,6.38,0,0,0-5.6-5.143l-28.98-2.98V37.38A6.38,6.38,0,1,0,2,37.38V62.9a6.381,6.381,0,0,0,5.743,6.349l30.065,3.107c.944,4.217,2.067,8.41,3.363,12.544L16.675,102.634a6.38,6.38,0,0,0-1.787,8.352l25.522,44.2a6.381,6.381,0,0,0,8.129,2.635l27.634-12.359q4.383,4.766,9.162,9.162L72.977,182.262a6.38,6.38,0,0,0,2.635,8.129l44.2,25.522a6.38,6.38,0,0,0,8.358-1.78L145.9,189.644c4.135,1.276,8.295,2.418,12.544,3.363l3.107,30.065a6.381,6.381,0,0,0,6.38,5.742h25.522a6.38,6.38,0,0,0,0-12.761Z" transform="translate(-1.984 154.034)" fill="#0fbf44"/><path d="M123.468,27.761A94.725,94.725,0,0,1,182.086,47.93a6.382,6.382,0,1,0,7.829-10.081A107.371,107.371,0,0,0,123.468,15,108.468,108.468,0,1,0,231.936,123.468a107.358,107.358,0,0,0-22.855-66.44,6.38,6.38,0,1,0-10.075,7.822,94.737,94.737,0,0,1,20.169,58.618,95.809,95.809,0,0,1-57.424,87.661V186.1a19,19,0,0,0,2.737-34.691l15.766-31.469a6.38,6.38,0,0,0,0-5.7l-31.9-63.8A6.381,6.381,0,0,0,142.61,46.9H104.327a6.38,6.38,0,0,0-5.711,3.528l-31.9,63.8a6.38,6.38,0,0,0,0,5.7l8.933,17.865a6.38,6.38,0,1,0,11.415-5.7l-7.5-15.013L108.27,59.664h8.818V92.74a19.141,19.141,0,1,0,12.761,0V59.664h8.818l28.712,57.424-15.951,31.9H91.566A19.1,19.1,0,0,0,85.185,186.1V211.13A95.675,95.675,0,0,1,123.468,27.761Zm0,89.327a6.38,6.38,0,1,1,6.38-6.38A6.38,6.38,0,0,1,123.468,117.088Zm-31.9,44.663h63.8a6.38,6.38,0,1,1,0,12.761h-63.8a6.38,6.38,0,1,1,0-12.761Zm6.38,25.522H148.99v28.342a93.257,93.257,0,0,1-51.044,0Z" transform="translate(67.963 67.946)" fill="#0fbf44"/></g></g></svg>