<svg xmlns="http://www.w3.org/2000/svg" width="315.927" height="298.573" viewBox="0 0 315.927 298.573"><g transform="translate(-0.019 -2.014)"><path d="M116.867,210.154h0a88.854,88.854,0,1,0-62.84-26.015,88.849,88.849,0,0,0,62.84,26.015ZM56.471,70.431A88.41,88.41,0,0,0,74.439,83.339a159.148,159.148,0,0,0-4.27,33.024H38.083A78.241,78.241,0,0,1,56.471,70.431Zm139.2,45.933H163.59a159.072,159.072,0,0,0-4.27-32.975,88.409,88.409,0,0,0,18.018-12.933A78.611,78.611,0,0,1,195.676,116.363Zm-18.413,55.83A88.854,88.854,0,0,0,159.3,159.236a159.165,159.165,0,0,0,4.245-32.975h32.086a78.265,78.265,0,0,1-18.363,45.933ZM121.8,148.622V126.236h31.864a151.352,151.352,0,0,1-3.554,28.656A88.459,88.459,0,0,0,121.8,148.622Zm25.718,15.9c-5.8,18.536-15.105,31.815-25.718,35.023V158.52a78.563,78.563,0,0,1,25.718,6ZM121.8,116.363V93.952a89.077,89.077,0,0,0,28.285-6.269,150.409,150.409,0,0,1,3.529,28.68Zm0-32.308V43.108c7.4,2.32,14.562,9.7,20.214,21.054a96.257,96.257,0,0,1,5.5,13.9A79.13,79.13,0,0,1,121.8,84.055Zm-9.873,0a79.1,79.1,0,0,1-25.718-6c5.8-18.511,15.13-31.889,25.718-34.974Zm0,9.873v22.411H80.067a151.327,151.327,0,0,1,3.554-28.68,89.075,89.075,0,0,0,28.31,6.294Zm0,32.284V148.6a88.458,88.458,0,0,0-28.31,6.269,151.322,151.322,0,0,1-3.554-28.656Zm0,32.284v41.021c-10.613-3.209-19.943-16.463-25.718-35.023a78.563,78.563,0,0,1,25.718-5.973ZM91.272,196.061a78.488,78.488,0,0,1-27.989-16.734,79.183,79.183,0,0,1,13.945-10.317,84.657,84.657,0,0,0,14.044,27.051Zm65.234-27.15a79.178,79.178,0,0,1,13.945,10.317,78.489,78.489,0,0,1-27.989,16.734,84.658,84.658,0,0,0,14.044-26.952Zm0-95.395a104.106,104.106,0,0,0-5.627-13.846,71.232,71.232,0,0,0-8.318-13.131,78.981,78.981,0,0,1,27.866,16.907,78.661,78.661,0,0,1-14.069,10.169Zm-79.253,0A78.661,78.661,0,0,1,63.308,63.224,78.489,78.489,0,0,1,91.3,46.489a84.633,84.633,0,0,0-14.069,27.1Zm-7.059,52.72a159.172,159.172,0,0,0,4.245,32.975,88.854,88.854,0,0,0-17.968,12.958,78.265,78.265,0,0,1-18.413-45.933Z" transform="translate(41.018 44.665)" fill="#0fbf44"/><path d="M75.52,62.154a4.939,4.939,0,1,0,6.985,6.985,46.5,46.5,0,0,0,0-65.678,4.939,4.939,0,1,0-6.985,6.985,36.6,36.6,0,0,1,0,51.708Z" transform="translate(108.675 0)" fill="#0fbf44"/><path d="M69.571,45.732a4.936,4.936,0,0,0,6.985,0,25.694,25.694,0,0,0,0-36.332,4.939,4.939,0,1,0-6.985,6.985,15.821,15.821,0,0,1,0,22.362,4.936,4.936,0,0,0,0,6.985Z" transform="translate(99.939 8.721)" fill="#0fbf44"/><circle cx="5.183" cy="5.183" r="5.183" transform="translate(152.702 31.104)" fill="#0fbf44"/><path d="M65.557,68.878a4.936,4.936,0,0,0,0-6.985,36.6,36.6,0,0,1,0-51.832A4.936,4.936,0,0,0,58.6,3.2a46.5,46.5,0,0,0,0,65.678A4.936,4.936,0,0,0,65.557,68.878Z" transform="translate(66.017 0.26)" fill="#0fbf44"/><path d="M60.935,45.732a4.939,4.939,0,0,0,6.985-6.985,15.821,15.821,0,0,1,0-22.362A4.939,4.939,0,1,0,60.935,9.4,25.694,25.694,0,0,0,60.935,45.732Z" transform="translate(78.34 8.721)" fill="#0fbf44"/><path d="M163.676,110.151a46.426,46.426,0,0,0-56.768-32.827,4.936,4.936,0,0,0,2.468,9.527,36.554,36.554,0,0,1,44.773,25.842,4.936,4.936,0,1,0,9.527-2.468Z" transform="translate(152 108.263)" fill="#0fbf44"/><path d="M128.576,87.567a25.5,25.5,0,0,0-19.5-2.468,4.936,4.936,0,0,0,2.468,9.527,15.821,15.821,0,0,1,19.375,11.181,4.936,4.936,0,1,0,9.527-2.468A25.521,25.521,0,0,0,128.576,87.567Z" transform="translate(155.186 120.629)" fill="#0fbf44"/><circle cx="5.183" cy="5.183" r="5.183" transform="translate(263.539 232.707) rotate(-60)" fill="#0fbf44"/><path d="M145.871,126.979A36.554,36.554,0,0,1,101.1,101.137a4.936,4.936,0,1,0-9.527,2.468,46.426,46.426,0,0,0,56.768,32.827,4.936,4.936,0,1,0-2.468-9.527Z" transform="translate(133.967 139.539)" fill="#0fbf44"/><path d="M109.218,98.958a4.936,4.936,0,1,0-9.527,2.468,25.719,25.719,0,0,0,31.469,18.166,4.936,4.936,0,1,0-2.468-9.527,15.846,15.846,0,0,1-19.474-11.107Z" transform="translate(145.888 136.339)" fill="#0fbf44"/><path d="M54.415,86.851a4.936,4.936,0,0,0,2.468-9.527A46.426,46.426,0,0,0,.115,110.151a4.936,4.936,0,0,0,9.527,2.468A36.554,36.554,0,0,1,54.415,86.851Z" transform="translate(-0.02 108.263)" fill="#0fbf44"/><path d="M25.159,96.1a15.747,15.747,0,0,1,12-1.58,4.936,4.936,0,0,0,2.468-9.527,25.694,25.694,0,0,0-31.272,18.19,4.936,4.936,0,1,0,9.527,2.468A15.723,15.723,0,0,1,25.159,96.1Z" transform="translate(11.785 120.609)" fill="#0fbf44"/><circle cx="5.183" cy="5.183" r="5.183" transform="translate(38.094 228.945) rotate(-30)" fill="#0fbf44"/><path d="M69.305,97.391a4.936,4.936,0,0,0-6.047,3.48,36.554,36.554,0,0,1-44.773,25.842,4.936,4.936,0,1,0-2.468,9.527,46.3,46.3,0,0,0,56.867-32.95A4.936,4.936,0,0,0,69.305,97.391Z" transform="translate(17.447 139.78)" fill="#0fbf44"/><path d="M14.411,113.574a4.936,4.936,0,0,0,3.48,6.047,25.669,25.669,0,0,0,31.469-18.166,4.936,4.936,0,1,0-9.527-2.468,15.846,15.846,0,0,1-19.375,11.181A4.936,4.936,0,0,0,14.411,113.574Z" transform="translate(20.83 136.383)" fill="#0fbf44"/><path d="M89.452,29.446a124.717,124.717,0,0,1,65.629,114.968,4.936,4.936,0,0,0,4.739,5.134h.2a4.936,4.936,0,0,0,4.936-4.739A134.565,134.565,0,0,0,94.142,20.733a4.936,4.936,0,1,0-4.69,8.688Z" transform="translate(127.447 26.612)" fill="#0fbf44"/><path d="M172.7,112.414a124.865,124.865,0,0,1-131.06-.691,4.936,4.936,0,0,0-5.233,8.367,134.738,134.738,0,0,0,141.426.74,4.936,4.936,0,1,0-5.159-8.417Z" transform="translate(50.147 160.077)" fill="#0fbf44"/><path d="M14.422,146.62h0a4.936,4.936,0,0,0,4.936-4.936A124.816,124.816,0,0,1,84.2,29.6a4.937,4.937,0,0,0-4.739-8.663A134.688,134.688,0,0,0,9.486,141.758,4.936,4.936,0,0,0,14.422,146.62Z" transform="translate(13.81 26.897)" fill="#0fbf44"/></g></svg>