<svg xmlns="http://www.w3.org/2000/svg" width="2579.619" height="2570.963" viewBox="0 0 2579.619 2570.963"><path d="M2201.621,2092.142c252.191,145.428,378,335.871,378,526.888h0c0,190.443-125.807,380.884-378,526.313-251.614,145.429-581.713,218.143-911.812,218.143S629.612,3290.771,378,3145.342C125.807,2999.914,0,2809.473,0,2619.03H0c0-191.017,125.807-381.46,378-526.888C881.226,1801.286,1697.816,1801.286,2201.621,2092.142Z" transform="translate(0 -792.522)" fill="#eaeaea" fill-rule="evenodd"/><path d="M1820.1,3773.885c-46.167,26.545-108.494,40.973-175.437,40.973s-129.27-14.428-175.437-40.973c-39.819-23.086-61.75-51.363-61.75-79.641s21.93-56.557,61.75-79.641c46.168-26.543,108.494-41.549,175.438-41.549s129.27,15.006,175.437,41.549c39.819,23.084,61.75,51.363,61.75,79.641S1859.918,3750.8,1820.1,3773.885Zm457.062-316.25c.576-11.541-3.463-24.814-10.389-36.357-1.154-2.311-2.886-4.617-4.04-6.926h-.578a50.617,50.617,0,0,0-4.616-5.771l-.578-.574q-2.595-2.6-5.194-5.2l-.576-.574c-1.731-1.154-3.463-2.885-5.771-4.041q-1.732-.867-3.464-1.73c0-.576-.578-.576-1.153-.576-.577-.578-1.154-.578-1.732-1.156-1.154,0-1.731-.576-2.886-.576h-.576c-.578-.576-1.731-.576-2.885-.576V3393a27.994,27.994,0,0,0-10.388,1.73h0c-30.009,15.006-199.674,122.922-277.583,171.973l-38.666,23.086a6.949,6.949,0,0,0-2.885,2.887l-.577.576c0,.578-.577,1.152-.577,1.729l-.578,1.156a2.018,2.018,0,0,0-.578,1.154v1.154a63.258,63.258,0,0,1-6.347,3.463l-5.771,2.887c-12.121-11.543-27.123-22.506-44.437-32.32-53.094-31.162-124.076-47.9-199.675-47.9-75.022,0-146.005,16.734-199.676,47.9-55.4,31.742-85.987,75.025-85.987,121.77,0,46.168,30.584,89.449,85.987,121.77,53.67,30.584,124.653,47.9,199.676,47.9,75.6,0,146.582-17.314,199.675-47.9,55.978-32.32,86.564-75.6,86.564-121.77,0-21.352-6.348-41.553-18.467-60.6l5.193-2.309a12.694,12.694,0,0,0,10.965,1.152v-.574c26.547-14.428,285.085-124.654,338.179-152.932h0C2272.542,3475.523,2276.582,3468.021,2277.161,3457.635Z" transform="translate(-574.726 -1434.913)" fill="#d7d9d9" fill-rule="evenodd"/><path d="M1807.543,2255.651l-262-151.773c-13.273-7.5-34.626-7.5-47.9,0L165.7,2873.145c-13.273,7.5-13.273,19.621,0,27.7l262,151.777c13.273,7.5,35.2,7.5,48.476,0l499.188-288.55,76.177,45.016c40.974,23.081,106.763,23.081,147.16,0l229.107-131c40.4-23.661,40.4-61.749,0-85.409l-76.754-44.437,456.483-264.887C1821.393,2275.853,1821.393,2263.155,1807.543,2255.651Z" transform="translate(-65.867 -887.358)" fill="#d7d9d9" fill-rule="evenodd"/><path d="M3774.382,3144.283c100.412,58.284,100.412,151.775,0,210.062-100.416,57.708-263.156,57.708-363.57,0-100.416-58.286-100.416-151.777,0-210.062C3511.226,3086.572,3673.966,3086.572,3774.382,3144.283Z" transform="translate(-1410.596 -1311.426)" fill="#d7d9d9" fill-rule="evenodd"/><path d="M4033.48,2891.029c0-35.2-6.926-99.261,22.508-159.277,21.35-43.861,59.439-85.99,94.643-81.949,33.475,4.039,36.355,54.823,4.615,90.026-31.736,34.625-71.557,82.525-80.791,159.855l-22.508,57.135Z" transform="translate(-1705.475 -1120.499)" fill="#00b3a9" fill-rule="evenodd"/><path d="M4051.618,2957.017l-18.467-65.791v-.576c0-10.963-1.152-24.813-1.152-40.974,0-34.05,3.463-76.755,23.66-117.726,20.2-41.555,55.977-81.95,90.029-81.95h4.617c17.891,2.311,26.545,17.314,26.545,36.357,0,16.734-6.93,36.933-21.928,53.67-31.742,34.625-71.564,82.526-80.8,159.854Z" transform="translate(-1705.147 -1120.697)" fill="#8ef985" fill-rule="evenodd"/><path d="M4051.643,2930.9a2.485,2.485,0,0,0,2.309-2.311c-4.041-99.259,27.7-181.206,92.912-237.764,1.154-.576,1.154-2.307,0-3.461a1.637,1.637,0,0,0-2.889,0c-66.363,57.132-99.258,140.812-95.217,241.225a2.64,2.64,0,0,0,2.885,2.311Z" transform="translate(-1712.096 -1136.131)" fill="#fefefe" fill-rule="evenodd"/><path d="M4000.552,3152.462s23.666,16.158,61.176,17.313c36.934.579,50.787-19.042,50.787-19.042s-19.047-32.318-40.979-38.667c0,0,36.363,2.31,66.943,17.313,0,0,22.51-2.884,26.545-38.091,0,0-16.158-18.464-61.746-23.657,0,0,25.971-10.388,66.367-5.772,2.887,1.154,9.234-44.434,10.387-65.212s-6.924-19.618-23.658-21.931c-16.162-1.731-70.408,2.313-79.064,12.7-8.656,9.812-9.812,40.4-9.812,40.4s-11.537-15.584-11.537-31.166a58.758,58.758,0,0,0-33.475,5.773c-16.734,8.077-21.934,15-23.086,28.274-.572,12.7-1.729,32.318,3.465,47.324,0,0-15.58-24.814-15-46.169a265.008,265.008,0,0,0-15.582,32.9C3965.354,3083.212,3973.433,3129.378,4000.552,3152.462Z" transform="translate(-1678.899 -1257.856)" fill="#87f97d" fill-rule="evenodd"/><path d="M4021.721,3162.665c.578,0,1.15-.576,1.73-1.729,20.775-64.635,120.613-150.046,158.7-163.319a2.205,2.205,0,0,0,1.732-2.885A3.174,3.174,0,0,0,4181,2993c-39.242,13.273-140.812,100.415-162.162,166.78a2.105,2.105,0,0,0,1.152,2.885Z" transform="translate(-1699.486 -1265.752)" fill="#fefefe" fill-rule="evenodd"/><path d="M1727.442,2876.555l197.367-113.688c20.2-11.541,30.586-27.123,30.586-42.7v-27.123L1770.147,2587.43c-10.965-5.771-19.622-21.354-19.622-33.473V2311L1406,2509.522v242.956c0,12.7,8.656,27.7,19.622,34.049l154.661,90.027C1621.256,2900.216,1687.045,2900.216,1727.442,2876.555Z" transform="translate(-594.603 -977.331)" fill="#384e55" fill-rule="evenodd"/><path d="M1488.525,2913.751v27.122l-62.9-36.355c-10.966-6.349-19.622-21.353-19.622-34.049V2627.513L1471.79,2590c1.154,16.736,2.885,33.472,4.04,50.206l-46.168,27.125v189.288c0,12.7,8.656,28.278,19.621,34.049Z" transform="translate(-594.603 -1095.322)" fill="#2c3c42" fill-rule="evenodd"/><path d="M1447,2767.963c0,12.119,8.657,27.7,19.621,33.471l131,76.756c40.974,23.083,106.763,23.083,147.159,0l197.368-114.268c40.4-23.083,40.4-61.171,0-84.83l-131-76.178c-10.965-6.35-19.623-21.354-19.623-34.049V2379L1447,2578.1Z" transform="translate(-611.943 -1006.089)" fill="#42616a" fill-rule="evenodd"/><path d="M2139.781,2973v27.124c0,15.581-10.387,31.164-30.586,42.7l-197.366,113.688c-19.045,11.542-44.436,17.313-69.829,17.313v-27.124c25.394,0,50.784-6.349,69.829-17.312L2109.2,3015.129C2129.395,3003.587,2139.781,2988.583,2139.781,2973Z" transform="translate(-778.99 -1257.295)" fill="#384e55" fill-rule="evenodd"/><path d="M473.084,2023.876c12.7,6.925,34.049,6.925,47.322-1.154,169.089-97.529,1161.694-670.586,1330.783-768.115,13.85-8.079,24.815-27.124,24.815-42.705V46.745c0-15.582-10.388-34.049-23.084-41.551C1846.573,1.731,1838.493,0,1830.414,0A49.535,49.535,0,0,0,1805.6,6.348L474.238,774.463C460.964,782.542,450,801.586,450,817.168V1982.324C450,1997.906,460.388,2016.373,473.084,2023.876Z" transform="translate(-190.307 0)" fill="#42616a" fill-rule="evenodd"/><path d="M554.238,2044.25l1330.783-768.692c13.851-7.5,24.815-26.547,24.815-42.128V68.273c0-15.582-10.965-21.93-24.815-13.85L554.238,822.538C540.965,830.617,530,849.661,530,865.243V2030.4C530,2045.981,540.965,2052.329,554.238,2044.25Z" transform="translate(-224.139 -21.528)" fill="#1a202c" fill-rule="evenodd"/><path d="M609,1931.543V935.475c0-9.234,6.925-20.775,15-25.392L1882.651,183.519c8.079-4.617,14.427-1.154,14.427,8.656v995.491c0,9.811-6.348,20.775-14.427,25.392L624,1940.2C615.925,1944.816,609,1940.777,609,1931.543Z" transform="translate(-257.548 -76.756)" fill="#e4ffe2" fill-rule="evenodd"/><path d="M617.079,1941.72c-4.616,0-8.079-4.04-8.079-10.387V935.265c0-9.234,6.925-20.776,15-25.392L1882.651,183.309c2.308-1.154,4.617-2.309,6.348-2.309,4.617,0,8.079,4.04,8.079,10.965v191.6L800.6,1015.481c-6.348,4.04-12.119,13.273-12.119,20.776v808.511L624,1939.989A15.366,15.366,0,0,1,617.079,1941.72ZM819.64,1826.878v-708.1h0Z" transform="translate(-257.548 -76.546)" fill="#e4ffe2" fill-rule="evenodd"/><path d="M1729.779,2650.719a19.387,19.387,0,0,0-8.656,2.309c-12.119,6.926-21.352,23.66-21.352,37.512,0,6.349,1.73,10.388,5.193,12.7,3.462,1.729,8.079,1.155,13.272-1.729,12.12-6.928,21.931-23.664,21.931-37.515,0-5.77-2.31-10.388-5.771-12.119C1733.242,2650.719,1731.511,2650.719,1729.779,2650.719Zm-20.2,59.44c-2.886,0-5.194-1.153-7.5-2.309-5.193-2.886-8.079-9.231-8.079-17.312,0-15.582,10.965-34.049,24.237-42.129,6.926-4.04,13.851-4.617,19.045-1.73,5.193,3.46,8.079,9.233,8.079,17.312,0,16.158-10.389,34.628-24.238,42.131A20,20,0,0,1,1709.581,2710.159Z" transform="translate(-716.399 -1118.529)" fill="#00b3a9" fill-rule="evenodd"/><path d="M2270.157,510,974,1257.339v955.094a16.434,16.434,0,0,0,24.815,14.427l23.084-13.273L2245.92,1507.8c13.272-7.5,24.237-26.546,24.237-41.551Z" transform="translate(-411.908 -215.681)" fill="#eaeaea" fill-rule="evenodd"/><path d="M2270.157,510,974,1257.339v955.094a16.742,16.742,0,0,0,16.736,16.736,15.783,15.783,0,0,0,8.079-2.309l23.084-13.273L2245.92,1507.8c13.272-7.5,24.237-26.546,24.237-41.551Zm-5.77,9.234v947.014c0,13.273-9.811,30.009-21.353,36.935L1019.014,2208.97l-23.084,13.273a9.306,9.306,0,0,1-5.194,1.732,11.391,11.391,0,0,1-8.08-3.464,11.692,11.692,0,0,1-3.461-8.079V1260.8Z" transform="translate(-411.908 -215.681)" fill="#d7d9d9" fill-rule="evenodd"/><path d="M959.82,2761.988s-8.657-4.616-8.657-15V1791.891L920,1774v949.9a8.561,8.561,0,0,0,.578,4.041,26.181,26.181,0,0,0,12.7,18.467l25.392,15Z" transform="translate(-389.071 -750.232)" fill="#e5e6e5" fill-rule="evenodd"/><path d="M920,1172.679v-64.635c0-7.5,5.771-16.735,12.119-20.775l1272.5-733.489c6.347-4.04,17.312-4.04,24.238,0l6.348,3.463c6.924,4.039,12.119,13.273,12.119,21.352v64.058L951.163,1190.569Z" transform="translate(-389.071 -148.334)" fill="#00b3a9" fill-rule="evenodd"/><path d="M920,1172.785h0v-64.636c0-7.5,5.771-16.735,12.119-20.775l1272.5-733.489A26.825,26.825,0,0,1,2216.735,351c4.04,0,8.657.577,12.119,2.885l6.348,3.463c6.924,4.04,12.119,13.273,12.119,20.776,0-5.194-2.885-8.08-6.349-8.08a12.9,12.9,0,0,0-5.771,1.731L963.282,1105.264c-5.771,2.885-10.387,10.388-11.542,16.736a22.755,22.755,0,0,1,2.885-8.079h0l-30.586-17.313c-2.308,3.463-4.04,7.5-4.04,11.542ZM2247.321,378.124Zm0,0Z" transform="translate(-389.071 -148.439)" fill="#87f97d" fill-rule="evenodd"/><path d="M974,1139.936c0-7.5,5.195-17.313,12.119-20.775L2258.04,385.671c6.924-4.04,12.117-1.154,12.117,6.925v64.058L974,1204.57Z" transform="translate(-411.908 -162.336)" fill="#00b3a9" fill-rule="evenodd"/><path d="M974,1204.63V1140a9.808,9.808,0,0,1,.578-4.039c1.154-6.349,5.771-13.851,11.542-16.737L2258.04,385.731a12.894,12.894,0,0,1,5.771-1.731c3.46,0,6.346,2.886,6.346,8.656v64.058Z" transform="translate(-411.908 -162.395)" fill="#8ef985" fill-rule="evenodd"/><path d="M954.625,1660.313a24.241,24.241,0,0,0-3.462,12.12v64.634L920,1719.176v-64.635c0-4.039,1.732-8.079,4.04-11.542Z" transform="translate(-389.071 -694.831)" fill="#00b3a9" fill-rule="evenodd"/><path d="M951.163,1737.067h0L920,1719.176v-64.635c0-4.039,1.732-8.079,4.04-11.542l30.586,17.313a24.241,24.241,0,0,0-3.462,12.12Z" transform="translate(-389.071 -694.831)" fill="#19ab0c" fill-rule="evenodd"/><path d="M3122,489.556c0,7.5,5.2,10.387,11.543,6.925,5.771-4.04,10.963-12.7,10.963-19.621,0-7.5-5.192-10.388-10.963-6.925C3127.2,473.974,3122,482.63,3122,489.556Z" transform="translate(-1320.306 -198.122)" fill="#f7f5f5" fill-rule="evenodd"/><path d="M3044,535.546c0,6.925,4.616,9.811,10.964,6.348s11.544-12.119,11.544-19.621c0-6.926-5.192-9.811-11.544-6.348S3044,528.044,3044,535.546Z" transform="translate(-1287.32 -217.566)" fill="#f7f5f5" fill-rule="evenodd"/><path d="M2965,580.546c0,6.925,5.193,10.388,11.543,6.348,6.348-3.463,10.963-12.12,10.963-19.621,0-6.925-4.615-9.811-10.963-6.348S2965,573.044,2965,580.546Z" transform="translate(-1253.911 -236.597)" fill="#f7f5f5" fill-rule="evenodd"/><path d="M974,1666.018v954.517a16.434,16.434,0,0,0,24.815,14.428l23.084-13.273,283.354-163.317V1475L974,1666.018Z" transform="translate(-411.908 -623.784)" fill="#f7f5f5" fill-rule="evenodd"/><path d="M1587,1115.619v927.394l915.274-528.62V587Z" transform="translate(-671.149 -248.245)" fill="#f7f5f5" fill-rule="evenodd"/><path d="M1256.143,1668.253,1044.925,1790.6c-4.039,1.731-6.925,7.5-6.925,12.119v21.929c0,4.618,2.886,6.349,6.925,4.039l211.218-122.343c4.04-1.732,7.5-7.5,7.5-12.119v-21.93C1263.645,1667.677,1260.182,1665.945,1256.143,1668.253Z" transform="translate(-438.974 -705.081)" fill="#00b3a9" fill-rule="evenodd"/><path d="M1042.04,1829.741c-2.308,0-4.04-2.308-4.04-5.194v-21.929c0-4.618,2.886-10.388,6.925-12.12l211.218-122.344A8.2,8.2,0,0,1,1259.6,1667c2.308,0,4.04,2.308,4.04,5.193v21.93c0,4.618-3.463,10.389-7.5,12.119l-211.218,122.345A9.777,9.777,0,0,1,1042.04,1829.741Z" transform="translate(-438.974 -704.981)" fill="#b9e2e0" fill-rule="evenodd"/><path d="M1461.81,1663.958a4.36,4.36,0,0,1-2.308.577c-1.154-.577-2.308-2.886-2.308-6.349,0-6.348,3.462-13.85,7.5-16.159a2.12,2.12,0,0,1,1.731-.577H1467c1.155.577,2.309,2.886,2.309,6.349C1469.313,1654.724,1465.85,1661.649,1461.81,1663.958Zm16.736,0-6.348-5.771a32.685,32.685,0,0,0,1.731-10.387c0-4.618-1.154-8.656-4.617-10.389-2.309-1.153-4.617-1.153-7.5.578-5.194,2.886-9.811,11.542-9.811,20.2,0,4.617,1.731,8.657,4.617,10.388a8.212,8.212,0,0,0,3.463,1.154,13.6,13.6,0,0,0,4.617-1.154,51.929,51.929,0,0,0,5.193-5.771l5.194,4.618a2.894,2.894,0,0,0,3.463,0A2.164,2.164,0,0,0,1478.546,1663.958Z" transform="translate(-614.056 -692.128)" fill="#42616a" fill-rule="evenodd"/><path d="M1043.193,2048.428l-4.615,2.886-.578-.578v-12.7l.578-1.153,4.615-2.888.578.578v12.7Z" transform="translate(-438.974 -860.186)" fill="#42616a" fill-rule="evenodd"/><path d="M1055.193,2041.428l-4.616,2.308H1050v-12.7l.578-1.154,4.616-2.885.578.576v12.7Z" transform="translate(-444.049 -857.226)" fill="#42616a" fill-rule="evenodd"/><path d="M1067.194,2034.428l-4.617,2.308H1062v-13.273l.578-.576,4.617-2.886.577.577v12.7Z" transform="translate(-449.124 -854.266)" fill="#42616a" fill-rule="evenodd"/><path d="M1043.193,2076.852l-4.615,2.884H1038v-13.272l.578-.575,4.615-2.888.578.578v12.7Z" transform="translate(-438.974 -872.45)" fill="#42616a" fill-rule="evenodd"/><path d="M1055.193,2069.851l-4.616,2.885-.578-.577v-12.7l.578-.575,4.616-2.888h.578v13.272Z" transform="translate(-444.049 -869.492)" fill="#42616a" fill-rule="evenodd"/><path d="M1067.194,2062.85l-4.617,2.886-.578-.577v-12.7l.578-1.155,4.617-2.309h.577v13.275Z" transform="translate(-449.124 -866.53)" fill="#42616a" fill-rule="evenodd"/><path d="M1043.771,2152l-5.771-3.462v-1.155l5.771-10.388c.578,0,.578,0,.578.574v13.853C1044.349,2152,1044.349,2152.58,1043.771,2152Z" transform="translate(-438.974 -903.746)" fill="#42616a" fill-rule="evenodd"/><path d="M1043.155,2146.616l7.5-4.616v3.462l-7.5,4.618c-.578.577-1.155,0-1.155-1.154S1042.578,2146.616,1043.155,2146.616Z" transform="translate(-440.666 -905.861)" fill="#42616a" fill-rule="evenodd"/><path d="M1060,2139.155l2.309-1.155v3.465l-2.309,1.729Z" transform="translate(-448.278 -904.169)" fill="#42616a" fill-rule="evenodd"/><path d="M1072.771,2132.987v13.272a3.173,3.173,0,0,1-1.731,2.887,1.241,1.241,0,0,1-1.154-1.155v-12.119l-2.886,2.309v-4.04l4.04-2.306C1072.194,2131.257,1072.771,2131.835,1072.771,2132.987Z" transform="translate(-451.239 -901.466)" fill="#42616a" fill-rule="evenodd"/><path d="M1045.934,2214.088c-5.194,4.039-9.234,14.429-8.079,21.93,1.153,6.924,5.193,6.924,5.771,9.811l.577.579,5.193-2.887.578-1.155c.577-4.04,5.771-9.232,5.771-19.622C1055.745,2214.664,1051.128,2210.626,1045.934,2214.088Z" transform="translate(-438.829 -935.821)" fill="#42616a" fill-rule="evenodd"/><path d="M1053.194,2275.349l-4.616,2.884-.578-.577v-4.616l.578-1.151,4.616-2.888,1.155.577v4.616Z" transform="translate(-443.203 -959.57)" fill="#42616a" fill-rule="evenodd"/><path d="M1048.965,2054.445c-4.616,2.885-8.079-.578-8.079-8.079,0-6.926,3.463-15,8.079-17.89,4.617-2.309,8.657,1.152,8.657,8.079C1057.622,2044.057,1053.582,2052.136,1048.965,2054.445Zm-1.731-28.277c-4.618,3.461-8.079,11.542-9.234,19.043q0,6.924,1.731,10.388l-1.731,8.657c0,1.153,0,1.153.578.577l5.193-5.194c1.731.578,4.617,0,6.925-2.309,5.194-3.463,8.658-11.542,9.233-19.044C1061.085,2026.167,1054.736,2019.818,1047.234,2026.167Z" transform="translate(-438.974 -855.816)" fill="#42616a" fill-rule="evenodd"/><path d="M1048.965,2347.376c-4.616,2.885-8.079-.577-8.079-8.079,0-6.927,3.463-15,8.079-17.89,4.617-2.31,8.657,1.155,8.657,8.079C1057.622,2336.987,1053.582,2345.068,1048.965,2347.376Zm-1.731-28.278c-4.618,3.465-8.079,11.544-9.234,19.044,0,4.042.578,8.08,1.731,10.39l-1.731,8.656c0,.576,0,1.154.578.576l5.193-5.192c1.731.575,4.617,0,6.925-2.311,5.194-4.039,8.658-11.541,9.233-19.043C1061.085,2318.522,1054.736,2312.75,1047.234,2319.1Z" transform="translate(-438.974 -979.659)" fill="#42616a" fill-rule="evenodd"/><path d="M1060.234,2424.359c0,3.46-2.309,8.079-4.617,9.232-2.31,1.733-4.617-.576-4.617-4.037a13.264,13.264,0,0,1,4.617-9.812C1057.925,2418.589,1060.234,2420.319,1060.234,2424.359Z" transform="translate(-444.472 -1023.171)" fill="#42616a" fill-rule="evenodd"/><path d="M1075.771,2427.778a9.389,9.389,0,0,1-2.886,6.349c-1.73,1.15-2.885-.577-2.885-2.886s1.155-5.194,2.885-6.35C1074.04,2424.314,1075.771,2425.47,1075.771,2427.778Z" transform="translate(-452.507 -1025.434)" fill="#42616a" fill-rule="evenodd"/><path d="M1060.388,2462.833,1050,2468.6V2455.33a8.995,8.995,0,0,1,3.464-6.925l2.884-1.729c2.309-1.154,4.04,0,4.04,2.885Z" transform="translate(-444.049 -1034.523)" fill="#42616a" fill-rule="evenodd"/><path d="M1072.885,2443.659l-2.885,1.731v15l5.771-2.885v-12.118C1075.771,2443.659,1074.616,2442.5,1072.885,2443.659Z" transform="translate(-452.507 -1033.236)" fill="#42616a" fill-rule="evenodd"/><path d="M1038,2449.438c0,2.887,1.155,4.038,2.886,2.887,1.73-.577,2.885-3.465,2.885-6.349,0-2.308-1.155-3.463-2.885-2.308C1039.155,2444.244,1038,2447.13,1038,2449.438Z" transform="translate(-438.974 -1033.246)" fill="#42616a" fill-rule="evenodd"/><path d="M1040.309,2461.733l2.885-1.733v15.582l-5.193,2.884V2466.35C1038,2464.618,1039.155,2462.31,1040.309,2461.733Z" transform="translate(-438.974 -1040.344)" fill="#42616a" fill-rule="evenodd"/><path d="M1122.348,1953.977l123.5-71.561c3.463-1.73,6.348-.576,6.348,2.886s-2.885,8.079-6.348,10.387l-123.5,70.984c-3.463,2.308-6.348.576-6.348-2.886S1118.885,1955.708,1122.348,1953.977Z" transform="translate(-471.961 -795.746)" fill="#d7d9d9" fill-rule="evenodd"/><path d="M1122.348,2054.976l123.5-71.56c3.463-1.73,6.348-.575,6.348,2.887s-2.885,8.079-6.348,9.81l-123.5,71.56c-3.463,2.31-6.348.578-6.348-2.885S1118.885,2056.708,1122.348,2054.976Z" transform="translate(-471.961 -838.458)" fill="#d7d9d9" fill-rule="evenodd"/><path d="M1122.348,2155.213l123.5-70.982c3.463-2.309,6.348-.577,6.348,2.884s-2.885,8.081-6.348,9.812l-123.5,71.56c-3.463,1.731-6.348.577-6.348-2.886S1118.885,2157.522,1122.348,2155.213Z" transform="translate(-471.961 -880.985)" fill="#d7d9d9" fill-rule="evenodd"/><path d="M1122.348,2256.211l123.5-70.982c3.463-2.308,6.348-.576,6.348,2.887s-2.885,8.079-6.348,9.812l-123.5,71.559c-3.463,1.731-6.348.577-6.348-2.885C1116,2262.559,1118.885,2258.522,1122.348,2256.211Z" transform="translate(-471.961 -923.698)" fill="#d7d9d9" fill-rule="evenodd"/><path d="M1122.348,2357.21l123.5-70.979c3.463-2.31,6.348-.579,6.348,2.884s-2.885,8.08-6.348,9.812l-123.5,71.56c-3.463,1.73-6.348.578-6.348-2.886C1116,2363.562,1118.885,2359.521,1122.348,2357.21Z" transform="translate(-471.961 -966.411)" fill="#d7d9d9" fill-rule="evenodd"/><path d="M1161.771,2439.976l123.5-71.559c3.463-1.73,6.348-.578,6.348,2.886s-2.884,8.079-6.348,10.389l-123.5,70.982c-3.462,2.308-5.771.576-5.771-2.884S1158.309,2441.707,1161.771,2439.976Z" transform="translate(-488.877 -1001.276)" fill="#42616a" fill-rule="evenodd"/><path d="M1161.771,2507.977l123.5-71.559c3.463-1.732,6.348-.579,6.348,2.885,0,4.039-2.884,8.079-6.348,10.388l-123.5,70.981c-3.462,2.309-5.771.578-5.771-2.884S1158.309,2509.709,1161.771,2507.977Z" transform="translate(-488.877 -1030.035)" fill="#d7d9d9" fill-rule="evenodd"/><path d="M1161.771,2575.99l123.5-71.561c3.463-1.731,6.348-.577,6.348,3.463,0,3.463-2.884,8.079-6.348,9.812l-123.5,71.559c-3.462,1.731-5.771.576-5.771-3.464C1156,2582.339,1158.309,2577.723,1161.771,2575.99Z" transform="translate(-488.877 -1058.806)" fill="#d7d9d9" fill-rule="evenodd"/><path d="M1203.348,2619.214l123.5-70.984c3.463-2.308,6.349-.576,6.349,2.884s-2.886,8.082-6.349,9.813l-123.5,71.56c-3.463,1.731-6.348.577-6.348-2.884C1197,2625.562,1199.885,2621.52,1203.348,2619.214Z" transform="translate(-506.217 -1077.213)" fill="#d7d9d9" fill-rule="evenodd"/><path d="M1157.155,2712.278l9.81-17.89a1.082,1.082,0,0,0,0-1.731l-9.81-5.772c-.578-.576-1.155.579-1.155,1.156v24.237C1156,2712.854,1156.578,2712.854,1157.155,2712.278Z" transform="translate(-488.877 -1136.228)" fill="#42616a" fill-rule="evenodd"/><path d="M1203.348,2687.063l123.5-71.561c3.463-1.73,6.349,0,6.349,3.46s-2.886,8.083-6.349,9.813l-123.5,71.561c-3.463,1.73-6.348.576-6.348-2.885C1197,2693.408,1199.885,2689.368,1203.348,2687.063Z" transform="translate(-506.217 -1105.82)" fill="#d7d9d9" fill-rule="evenodd"/><path d="M1157.155,2779.971l9.81-17.891c.578-.576.578-1.732,0-1.732l-9.81-6.348c-.578,0-1.155,1.154-1.155,1.73v24.24C1156,2780.548,1156.578,2780.548,1157.155,2779.971Z" transform="translate(-488.877 -1164.678)" fill="#42616a" fill-rule="evenodd"/><path d="M1203.348,2754.989l123.5-71.559c3.463-1.732,6.349-.58,6.349,3.46,0,3.463-2.886,8.082-6.349,9.814l-123.5,71.558c-3.463,1.73-6.348.576-6.348-2.887A12.658,12.658,0,0,1,1203.348,2754.989Z" transform="translate(-506.217 -1134.504)" fill="#d7d9d9" fill-rule="evenodd"/><path d="M1157.155,2847.973l9.81-17.89c.578-.58.578-1.733,0-1.733l-9.81-6.35c-.578,0-1.155.58-1.155,1.732v23.66C1156,2848.546,1156.578,2848.546,1157.155,2847.973Z" transform="translate(-488.877 -1193.435)" fill="#42616a" fill-rule="evenodd"/><path d="M1203.348,2822.987l123.5-71.558c3.463-1.733,6.349-.578,6.349,3.46,0,3.463-2.886,8.08-6.349,9.813l-123.5,71.561c-3.463,1.729-6.348.575-6.348-3.464C1197,2829.335,1199.885,2824.72,1203.348,2822.987Z" transform="translate(-506.217 -1163.262)" fill="#d7d9d9" fill-rule="evenodd"/><path d="M1157.155,2915.971l9.81-17.888c.578-.58.578-1.734,0-1.734l-9.81-6.349c-.578,0-1.155.579-1.155,1.733v23.66C1156,2916.547,1156.578,2916.547,1157.155,2915.971Z" transform="translate(-488.877 -1222.191)" fill="#42616a" fill-rule="evenodd"/><path d="M1203.348,2890.99l123.5-71.562c3.463-1.73,6.349-.576,6.349,3.464,0,3.462-2.886,8.079-6.349,9.809l-123.5,71.562c-3.463,1.73-6.348.576-6.348-3.463C1197,2897.336,1199.885,2892.721,1203.348,2890.99Z" transform="translate(-506.217 -1192.019)" fill="#d7d9d9" fill-rule="evenodd"/><path d="M1157.155,2983.972l9.81-17.893c.578-.576.578-1.731,0-1.731l-9.81-6.348c-.578,0-1.155.578-1.155,1.732v23.659C1156,2984.546,1156.578,2984.546,1157.155,2983.972Z" transform="translate(-488.877 -1250.95)" fill="#42616a" fill-rule="evenodd"/><path d="M1203.348,2958.979l123.5-71.561c3.463-1.732,6.349-.577,6.349,2.886,0,4.04-2.886,8.08-6.349,10.388l-123.5,71.561c-3.463,1.73-6.348.577-6.348-3.463C1197,2965.327,1199.885,2960.71,1203.348,2958.979Z" transform="translate(-506.217 -1220.765)" fill="#d7d9d9" fill-rule="evenodd"/><path d="M1157.155,3051.969l9.81-17.89c.578-.575.578-1.73,0-1.73l-9.81-6.349c-.578,0-1.155.576-1.155,1.732v23.66C1156,3052.547,1156.578,3052.547,1157.155,3051.969Z" transform="translate(-488.877 -1279.708)" fill="#42616a" fill-rule="evenodd"/><path d="M1203.348,3026.977l123.5-71.56c3.463-1.73,6.349-.576,6.349,2.888,0,4.037-2.886,8.076-6.349,10.388l-123.5,70.98c-3.463,2.309-6.348.576-6.348-2.885S1199.885,3028.708,1203.348,3026.977Z" transform="translate(-506.217 -1249.522)" fill="#d7d9d9" fill-rule="evenodd"/><path d="M1157.155,3119.391l9.81-17.312c.578-.576.578-1.73,0-1.73l-9.81-6.348c-.578,0-1.155.576-1.155,1.729v23.661C1156,3120.546,1156.578,3120.546,1157.155,3119.391Z" transform="translate(-488.877 -1308.464)" fill="#42616a" fill-rule="evenodd"/><path d="M1203.348,3094.978l123.5-71.558c3.463-1.734,6.349-.58,6.349,2.884,0,4.039-2.886,8.078-6.349,10.387l-123.5,70.983c-3.463,2.31-6.348.576-6.348-2.885S1199.885,3096.709,1203.348,3094.978Z" transform="translate(-506.217 -1278.28)" fill="#d7d9d9" fill-rule="evenodd"/><path d="M1157.155,3187.279l9.81-17.312c.578-.578.578-1.731,0-1.731l-9.81-6.348c-.578-.575-1.155.578-1.155,1.729v23.663C1156,3188.435,1156.578,3188.435,1157.155,3187.279Z" transform="translate(-488.877 -1337.111)" fill="#42616a" fill-rule="evenodd"/><path d="M1632.349,1464.271l406.275-234.877a12.659,12.659,0,0,0,6.348-10.388V1115.7c0-4.038-2.885-5.77-6.348-3.462l-406.275,234.3c-3.463,2.308-6.349,6.925-6.349,10.388v103.876C1626,1464.848,1628.885,1466,1632.349,1464.271Z" transform="translate(-687.641 -469.934)" fill="#eaeaea" fill-rule="evenodd"/><path d="M1697.153,1584.581h0l2.886-10.965-4.039,1.731h0v-2.307h0v-.578l6.348-3.463h0v3.463l-2.885,10.965V1584h-.577l-1.732,1.154h0Z" transform="translate(-717.245 -663.536)" fill="#42616a" fill-rule="evenodd"/><path d="M1713.616,1571.08v-4.616h-1.153l-.577.576-.577.578v6.348l.577.577.577-.577.576-.577.577-.578v-1.73Zm-1.153-7.5a2.118,2.118,0,0,1,1.732-.578l1.152.578a2.013,2.013,0,0,1,.577,1.154v7.5c0,.577-.577,1.154-.577,1.731-.576.577-.576,1.154-1.152,1.731s-1.156,1.155-1.732,1.731c-.577,0-1.154.577-1.731.577l-1.154-.577c0-.577-.577-1.154-.577-1.731v-6.924c0-.577.577-1.732.577-2.308.576-.577,1.154-1.155,1.154-1.732C1711.309,1564.154,1711.886,1564.154,1712.463,1563.578Z" transform="translate(-722.743 -660.999)" fill="#42616a" fill-rule="evenodd"/><path d="M1730.5,1562.542v.577h0l.576-.577v-2.885h-.576v2.885Zm2.309-2.885v2.308l-.577,1.154-.578,1.155-1.153.577-.578.577-.577-.577-.578-.577v-3.464l.578-1.153.577-1.154.578-.578h1.731l.577.578Zm-8.079-.577v.577h.576v-2.886h-.576v2.309Zm5.192-6.926h.578v-.576l1.153-.578h0v.578h0l-5.771,15.581-.576.578v.577l-1.155.578h0v-.578h0Zm-2.887,4.04v2.887l-.575,1.154-.578.576-.576.577-1.155.577-.576-.577-.576-.577v-3.463l.576-1.154.576-.576,1.155-1.155h1.154l.575,1.155Z" transform="translate(-728.664 -655.924)" fill="#42616a" fill-rule="evenodd"/><path d="M1687.85,1536.349l-4.04-6.349a78.21,78.21,0,0,0-9.81,25.97l6.925-.578A53.877,53.877,0,0,1,1687.85,1536.349Z" transform="translate(-707.941 -647.043)" fill="#42616a" fill-rule="evenodd"/><path d="M1706.582,1511.387V1501A43.959,43.959,0,0,0,1691,1517.735l4.04,6.348A35.14,35.14,0,0,1,1706.582,1511.387Z" transform="translate(-715.131 -634.779)" fill="#42616a" fill-rule="evenodd"/><path d="M1678.926,1583.81a30.26,30.26,0,0,1,1.154-9.81l-6.926.578A112.649,112.649,0,0,0,1672,1587.85a72.032,72.032,0,0,0,1.154,12.119l6.926-6.925C1678.926,1590.158,1678.926,1587.272,1678.926,1583.81Z" transform="translate(-707.096 -665.651)" fill="#42616a" fill-rule="evenodd"/><path d="M1724.785,1512.826c-1.732-7.5-5.194-12.7-9.812-15s-9.811-2.308-15.581,1.154v10.388a11.839,11.839,0,0,1,11.543-.577c3.462,1.731,5.77,5.77,6.924,10.964a39.261,39.261,0,0,1,1.155,8.657,50.814,50.814,0,0,1-1.155,9.81,56.841,56.841,0,0,1-6.924,19.622c-3.464,5.193-7.5,9.811-11.543,12.119-4.617,2.308-8.657,2.886-11.542,1.154-3.462-1.731-5.771-5.771-6.925-10.966l-6.925,6.926c1.731,7.5,5.193,12.7,9.81,15,4.04,2.309,9.811,1.732,15.582-1.154,5.771-3.462,10.965-9.811,15.581-16.735a81.369,81.369,0,0,0,9.812-26.547,94.846,94.846,0,0,0,1.153-13.274A71.148,71.148,0,0,0,1724.785,1512.826Z" transform="translate(-707.941 -632.755)" fill="#00b3a9" fill-rule="evenodd"/><path d="M1828.348,1420.989l123.5-71.56c3.462-1.731,5.771-.578,5.771,3.462,0,3.462-2.309,8.08-5.771,9.811l-123.5,71.56c-3.463,1.731-6.349.576-6.349-3.462C1822,1427.336,1824.885,1422.72,1828.348,1420.989Z" transform="translate(-770.531 -570.349)" fill="#42616a" fill-rule="evenodd"/><path d="M1828.348,1428.5l214.1-124.075c3.464-1.731,5.772-.578,5.772,3.462,0,3.462-2.309,8.08-5.772,9.811l-214.1,123.5c-3.463,2.309-6.349.577-6.349-2.885S1824.885,1430.236,1828.348,1428.5Z" transform="translate(-770.531 -551.318)" fill="#d7d9d9" fill-rule="evenodd"/><path d="M2396.772,1023.108,2803.627,788.23c2.881-1.731,5.768-6.925,5.768-10.388V673.965c0-3.462-2.887-5.194-5.768-3.462L2396.772,905.38c-3.462,1.732-5.772,6.349-5.772,10.388v103.877C2391,1023.108,2393.311,1024.84,2396.772,1023.108Z" transform="translate(-1011.163 -283.271)" fill="#eaeaea" fill-rule="evenodd"/><path d="M2471.192,1130.616l-.577-1.154h-1.151l-.577.577v.577l-.578.577v1.156l.578.576h.577l.575-.576.576-.58v-.576Zm-5.192,2.309v-1.731c.577-.577.577-1.731,1.155-2.308a1.241,1.241,0,0,1,1.153-1.154l1.155-1.154,1.729-.578h1.155l.579,1.154v4.039l-.579.576v1.155l-2.309,6.348v.577h-.575l-1.731,1.155h-.577v-.577h0l1.731-4.04h-1.154l-.577-.577-1.155-1.155Z" transform="translate(-1042.883 -476.19)" fill="#42616a" fill-rule="evenodd"/><path d="M2485.2,1125.891v-4.039l-.58-.577v-.578l-.575.578-1.156.577v.578l-.576.576v5.195l.576.577h1.156l.575-.577v-.578l.58-1.154Zm-1.155-8.079c.575,0,1.155-.577,1.155,0h1.152a2.121,2.121,0,0,1,.577,1.732c.576,0,.576,1.153.576,1.731v3.463a2.124,2.124,0,0,1-.576,1.731,3.469,3.469,0,0,1-.577,2.308c0,.578-.578,1.154-1.152,1.731,0,.577-.58.577-1.155,1.154-1.156.578-1.156.578-1.732.578l-1.154-.578c-.576,0-.576-.577-.576-1.154a2.114,2.114,0,0,1-.579-1.731v-3.462a3.462,3.462,0,0,1,.579-2.309,2.123,2.123,0,0,1,.576-1.731c0-.578.576-1.155,1.154-1.731S2482.885,1118.39,2484.041,1117.812Z" transform="translate(-1048.802 -472.619)" fill="#42616a" fill-rule="evenodd"/><path d="M2501.927,1116.964v.578h1.153v-2.884h-.58l-.573.577v1.729Zm2.3-2.886v2.886l-.574,1.155-.577.577-.58,1.155h-1.729v-5.193l.573-1.155,1.155-.577.58-.577.577.577.574.577Zm-8.076-.576v1.155h.575l.578-.579v-2.885h-.578l-.575.577v1.731Zm5.771-6.348v-.578h0l1.153-.578h.577l-6.349,16.159v.577h-.578l-.575.577h-.579v-.577h0Zm-3.464,4.039v2.309l-.576,1.155-.578,1.153-.578.577h-1.154l-.576-.577v-3.462l.576-1.155.579-1.155.575-.576.578-.578.578.578.576.576Z" transform="translate(-1055.144 -467.731)" fill="#42616a" fill-rule="evenodd"/><path d="M2477.579,1066.388V1056A43.992,43.992,0,0,0,2462,1072.735l4.04,6.349A31.009,31.009,0,0,1,2477.579,1066.388Z" transform="translate(-1041.191 -446.587)" fill="#42616a" fill-rule="evenodd"/><path d="M2494.363,1067.826c-1.733-7.5-5.2-12.7-9.234-15-4.617-2.309-9.812-2.309-15.583,1.153v10.389a11.842,11.842,0,0,1,11.543-.578c2.888,1.731,5.771,5.771,6.927,10.964a34.937,34.937,0,0,1,1.152,8.657,56.831,56.831,0,0,1-1.152,9.81,62.009,62.009,0,0,1-6.927,19.044c-3.461,5.772-7.5,10.388-11.543,12.7-4.616,2.309-8.656,2.886-11.54.577-3.463-1.732-5.771-5.194-7.5-10.965a38.271,38.271,0,0,1-.576-8.656,59.436,59.436,0,0,1,.576-9.811,69.032,69.032,0,0,1,7.5-19.044l-4.039-6.348a78.2,78.2,0,0,0-9.812,25.969,53.878,53.878,0,0,0-1.155,13.273c0,4.617,0,8.658,1.155,12.12,1.731,6.924,5.2,12.118,9.812,15,4.039,2.309,9.809,1.733,15.579-1.729,5.771-2.886,10.966-9.235,15.583-16.736h0a92.484,92.484,0,0,0,9.234-25.97,49.237,49.237,0,0,0,1.729-13.274A34.718,34.718,0,0,0,2494.363,1067.826Z" transform="translate(-1033.155 -444.562)" fill="#00b3a9" fill-rule="evenodd"/><path d="M2598.771,975.977l124.075-71.56c2.885-1.731,5.771-.577,5.771,2.886,0,4.04-2.886,8.079-5.771,10.387L2598.771,989.25c-3.463,1.731-5.771,0-5.771-3.463S2595.309,977.708,2598.771,975.977Z" transform="translate(-1096.591 -382.145)" fill="#42616a" fill-rule="evenodd"/><path d="M2598.771,983.5l214.1-124.076c3.464-1.731,6.35-.577,6.35,3.462,0,3.463-2.886,8.08-6.35,9.811l-214.1,123.5c-3.463,1.731-5.771.577-5.771-2.886S2595.309,985.236,2598.771,983.5Z" transform="translate(-1096.591 -363.127)" fill="#d7d9d9" fill-rule="evenodd"/><path d="M1703.771,1734.637l87.141-50.208c2.886-1.731,5.771-.577,5.771,3.464,0,3.461-2.886,8.079-5.771,9.81l-87.141,50.208c-2.886,1.731-5.771.577-5.771-2.886S1700.886,1736.946,1703.771,1734.637Z" transform="translate(-718.091 -712.022)" fill="#42616a" fill-rule="evenodd"/><path d="M2482.411,1009a4.382,4.382,0,0,0-2.309,1.154l-689.63,397.619c-1.153.578-1.73,1.154-2.885,1.154-1.731,0-2.886-1.731-2.886-4.616v-38.089c0-2.885-1.731-4.04-3.463-4.04a5.2,5.2,0,0,0-2.886.577l-123.5,71.561a12.657,12.657,0,0,0-6.347,10.388V1482.8c0,4.04-2.308,8.656-5.771,10.388l-10.388,6.349A12.656,12.656,0,0,0,1626,1509.92v665.392c0,2.886,1.155,4.04,3.463,4.04a6.28,6.28,0,0,0,2.885-.577L2480.1,1689.4c2.885-1.73,5.771-6.924,5.771-10.388V1013.617C2485.873,1010.732,2484.719,1009,2482.411,1009Zm-701.172,358.376ZM2480.1,1015.925v663.083a8.01,8.01,0,0,1-2.886,5.771l-845.445,487.646V1509.92c0-1.73,1.732-4.615,2.886-5.771l10.965-5.771c4.616-2.885,8.656-9.811,8.656-15.581v-38.088c0-1.732,1.731-4.617,3.462-5.771l121.19-69.828v35.2c0,6.925,4.617,10.388,8.657,10.388a9.744,9.744,0,0,0,5.771-1.732Zm2.885-1.153Z" transform="translate(-687.641 -426.711)" fill="#d7d9d9" fill-rule="evenodd"/><path d="M1720.389,1824.271a9.939,9.939,0,0,0-4.618,8.077V1858.9q0,.866,1.731,0l66.942-38.666a9.936,9.936,0,0,0,4.616-8.079v-27.123a4.46,4.46,0,0,0-1.729.577Zm-4.04,40.4a7.322,7.322,0,0,1-3.464-.577,7.449,7.449,0,0,1-2.886-6.349v-25.393c0-4.616,3.463-10.387,7.5-12.7l66.942-38.665c2.887-1.73,5.194-1.73,7.5-.576a7.445,7.445,0,0,1,2.885,6.349v25.391c0,4.616-3.462,10.388-7.5,12.7l-66.942,38.665C1718.657,1864.089,1717.5,1864.667,1716.349,1864.667Z" transform="translate(-723.166 -752.602)" fill="#d7d9d9" fill-rule="evenodd"/><path d="M1732.038,1855.983l43.86-25.391c1.73-1.155,3.463-.578,3.463,2.309a7.829,7.829,0,0,1-4.04,6.347l-43.283,25.392c-2.308,1.155-4.038.578-4.038-1.729S1729.73,1857.139,1732.038,1855.983Z" transform="translate(-730.778 -773.929)" fill="#d7d9d9" fill-rule="evenodd"/><path d="M1828,1820.193l3.463,5.2.577-.577,4.039-9.233-.578-.577-6.924,4.04Z" transform="translate(-773.069 -767.571)" fill="#42616a" fill-rule="evenodd"/><path d="M1700.349,2350.5c2.885-1.73,5.77,0,5.77,3.464,0,4.041-2.885,8.079-5.77,10.389-3.463,1.73-6.349,0-6.349-3.464C1694,2356.852,1696.886,2352.812,1700.349,2350.5Z" transform="translate(-716.399 -993.75)" fill="#00b3a9" fill-rule="evenodd"/><path d="M1778.769,2260.431c2.887-1.732,5.771-.58,5.771,3.462,0,3.461-2.885,8.077-5.771,9.811-3.461,1.73-5.769.575-5.769-3.465C1773,2266.778,1775.308,2262.16,1778.769,2260.431Z" transform="translate(-749.809 -955.615)" fill="#00b3a9" fill-rule="evenodd"/><path d="M1856.771,2214.5c3.463-1.732,5.772,0,5.772,3.46,0,4.042-2.31,8.658-5.772,10.387-2.885,1.731-5.771,0-5.771-3.46S1853.886,2216.809,1856.771,2214.5Z" transform="translate(-782.796 -936.236)" fill="#00b3a9" fill-rule="evenodd"/><path d="M1935.771,2189.431c2.886-1.734,5.771-.58,5.771,3.459,0,3.464-2.886,8.08-5.771,9.813-3.462,2.308-5.771.574-5.771-2.886C1930,2195.775,1932.309,2191.159,1935.771,2189.431Z" transform="translate(-816.205 -925.589)" fill="#00b3a9" fill-rule="evenodd"/><path d="M2013.771,2108.229c3.462-2.309,5.771-.577,5.771,2.886,0,4.04-2.31,8.655-5.771,10.389-2.886,1.73-5.771,0-5.771-3.465S2010.885,2109.964,2013.771,2108.229Z" transform="translate(-849.191 -891.134)" fill="#00b3a9" fill-rule="evenodd"/><path d="M2092.77,2079.229c2.886-2.308,5.773-.577,5.773,2.885a13.584,13.584,0,0,1-5.773,10.388c-3.461,1.73-5.77.576-5.77-3.463C2087,2085.577,2089.309,2080.96,2092.77,2079.229Z" transform="translate(-882.601 -878.87)" fill="#00b3a9" fill-rule="evenodd"/><path d="M2170.771,1988.429c3.463-1.731,5.771-.577,5.771,3.462,0,3.462-2.308,8.08-5.771,9.811-3.463,2.31-5.771.578-5.771-2.885C2165,1994.777,2167.309,1990.16,2170.771,1988.429Z" transform="translate(-915.588 -840.585)" fill="#00b3a9" fill-rule="evenodd"/><path d="M2248.771,1965.5c3.465-1.729,5.771,0,5.771,3.464,0,4.039-2.307,8.655-5.771,10.388-2.885,1.731-5.77,0-5.77-3.463C2243,1971.85,2245.886,1967.81,2248.771,1965.5Z" transform="translate(-948.574 -830.932)" fill="#00b3a9" fill-rule="evenodd"/><path d="M2327.771,1716.5c2.886-1.729,5.771,0,5.771,3.464a13.579,13.579,0,0,1-5.771,10.387c-3.463,1.731-5.771,0-5.771-3.461A12.9,12.9,0,0,1,2327.771,1716.5Z" transform="translate(-981.984 -725.628)" fill="#00b3a9" fill-rule="evenodd"/><path d="M2405.77,1852.5c3.464-1.731,5.771,0,5.771,3.463a12.891,12.891,0,0,1-5.771,10.388c-2.885,1.731-5.77,0-5.77-3.463C2400,1858.85,2402.885,1854.811,2405.77,1852.5Z" transform="translate(-1014.968 -783.143)" fill="#00b3a9" fill-rule="evenodd"/><path d="M2484.771,1852.5c2.887-1.731,5.771,0,5.771,3.463,0,4.039-2.885,8.079-5.771,10.388-3.463,1.731-5.771,0-5.771-3.463A12.894,12.894,0,0,1,2484.771,1852.5Z" transform="translate(-1048.379 -783.143)" fill="#00b3a9" fill-rule="evenodd"/><path d="M2562.771,1852.5c3.464-1.731,5.77,0,5.77,3.463a12.89,12.89,0,0,1-5.77,10.388c-2.885,1.731-5.771,0-5.771-3.463C2557,1858.85,2559.886,1854.811,2562.771,1852.5Z" transform="translate(-1081.366 -783.143)" fill="#00b3a9" fill-rule="evenodd"/><path d="M2641.349,1716.5c2.885-1.729,5.771,0,5.771,3.464a13.582,13.582,0,0,1-5.771,10.387c-3.462,1.731-6.349,0-6.349-3.461C2635,1722.851,2637.887,1718.811,2641.349,1716.5Z" transform="translate(-1114.352 -725.628)" fill="#00b3a9" fill-rule="evenodd"/><path d="M2719.772,1690.5c2.884-1.73,5.768,0,5.768,3.463a13.584,13.584,0,0,1-5.768,10.388c-3.463,1.731-5.772,0-5.772-3.463A12.9,12.9,0,0,1,2719.772,1690.5Z" transform="translate(-1147.761 -714.633)" fill="#00b3a9" fill-rule="evenodd"/><path d="M2798.771,1581.23c2.887-2.309,5.771-.578,5.771,2.885a13.585,13.585,0,0,1-5.771,10.389c-3.464,1.731-5.771.576-5.771-3.462C2793,1587.578,2795.307,1582.962,2798.771,1581.23Z" transform="translate(-1181.17 -668.263)" fill="#00b3a9" fill-rule="evenodd"/><path d="M2876.771,1581.23c2.887-2.309,5.771-.578,5.771,2.885a13.585,13.585,0,0,1-5.771,10.389c-3.463,1.731-5.771.576-5.771-3.462C2871,1587.578,2873.308,1582.962,2876.771,1581.23Z" transform="translate(-1214.158 -668.263)" fill="#00b3a9" fill-rule="evenodd"/><path d="M2954.77,1581.23c3.464-2.309,5.772-.578,5.772,2.885,0,4.039-2.309,8.656-5.772,10.389-2.885,1.731-5.77.576-5.77-3.462C2949,1587.578,2951.885,1582.962,2954.77,1581.23Z" transform="translate(-1247.143 -668.263)" fill="#00b3a9" fill-rule="evenodd"/><path d="M3033.771,1535.5c2.883-1.731,5.77,0,5.77,3.463,0,4.038-2.887,8.078-5.77,10.387-3.464,1.731-5.771,0-5.771-3.463A12.89,12.89,0,0,1,3033.771,1535.5Z" transform="translate(-1280.553 -649.083)" fill="#00b3a9" fill-rule="evenodd"/><path d="M1703.154,2018.466h-.577a3.471,3.471,0,0,1-.577-2.309l46.168-52.516h0l45.014-25.969,45.014-14.428,45.013-46.744.578-.578,45.014-16.736,45.013-51.938.576-.577,45.015-12.7,45.014-143.119c0-.577.577-.577,1.153-.577a1.791,1.791,0,0,1,1.155.577l45.013,77.907,44.438-.577,44.436.577,44.437-77.907,1.155-.577,44.435-15.006,45.014-62.9,1.154-.578h90.6l44.437-25.968c1.154-.578,1.732,0,2.308.577a2.124,2.124,0,0,1-.575,1.73l-45.592,25.969-.577.578h-89.449L2292.947,1637l-.577.578-45.014,15.005-45.015,77.907-1.152.577h-90.6l-1.154-.577-43.86-75.6-43.859,140.813-1.154.577-45.014,13.273-45.012,51.939-.578.576-44.436,16.159-45.591,46.745-.577.577-45.014,14.428L1749.9,1965.95l-45.591,52.516Z" transform="translate(-719.783 -653.635)" fill="#00b3a9" fill-rule="evenodd"/><path d="M1702.72,2083.393a4.4,4.4,0,0,1-2.885-1.154c-.578-1.732,0-3.463,1.153-4.04l769.27-444.364c1.153-.578,2.887,0,4.039,1.154.577,1.154,0,2.885-1.152,4.04l-769.271,443.787Z" transform="translate(-718.771 -690.859)" fill="#d7d9d9" fill-rule="evenodd"/><path d="M1700.349,2305.43c2.885-1.731,5.77-.578,5.77,3.462,0,3.462-2.885,8.079-5.77,9.813-3.463,2.309-6.349.576-6.349-3.464C1694,2311.778,1696.886,2307.162,1700.349,2305.43Z" transform="translate(-716.399 -974.647)" fill="#00b3a9" fill-rule="evenodd"/><path d="M1778.769,2169.5c2.887-1.731,5.771,0,5.771,3.463s-2.885,8.079-5.771,9.812c-3.461,2.308-5.769.576-5.769-2.887C1773,2175.85,1775.308,2171.232,1778.769,2169.5Z" transform="translate(-749.809 -917.204)" fill="#00b3a9" fill-rule="evenodd"/><path d="M1856.771,2152.5c3.463-1.731,5.772,0,5.772,3.463a13.768,13.768,0,0,1-5.772,10.387c-2.885,1.732-5.771,0-5.771-3.462A13.59,13.59,0,0,1,1856.771,2152.5Z" transform="translate(-782.796 -910.016)" fill="#00b3a9" fill-rule="evenodd"/><path d="M1935.771,1988.429c2.886-1.731,5.771-.577,5.771,3.462,0,3.462-2.886,8.08-5.771,9.811-3.462,2.31-5.771.578-5.771-2.885C1930,1994.777,1932.309,1990.16,1935.771,1988.429Z" transform="translate(-816.205 -840.585)" fill="#00b3a9" fill-rule="evenodd"/><path d="M2013.771,2033.5c3.462-1.732,5.771,0,5.771,3.463a12.9,12.9,0,0,1-5.771,10.388c-2.886,1.732-5.771,0-5.771-3.463C2008,2039.85,2010.885,2035.811,2013.771,2033.5Z" transform="translate(-849.191 -859.689)" fill="#00b3a9" fill-rule="evenodd"/><path d="M2092.77,2011.429c2.886-1.731,5.773-.577,5.773,3.463,0,3.462-2.888,8.078-5.773,9.811-3.461,1.73-5.77.576-5.77-3.463C2087,2017.777,2089.309,2013.161,2092.77,2011.429Z" transform="translate(-882.601 -850.312)" fill="#00b3a9" fill-rule="evenodd"/><path d="M2170.771,1943.429c3.463-1.731,5.771-.577,5.771,3.463,0,3.463-2.308,8.08-5.771,9.811s-5.771.577-5.771-3.462C2165,1949.778,2167.309,1945.161,2170.771,1943.429Z" transform="translate(-915.588 -821.555)" fill="#00b3a9" fill-rule="evenodd"/><path d="M2248.771,1852.5c3.465-1.731,5.771,0,5.771,3.463a12.89,12.89,0,0,1-5.771,10.388c-2.885,1.731-5.77,0-5.77-3.463C2243,1858.85,2245.886,1854.811,2248.771,1852.5Z" transform="translate(-948.574 -783.143)" fill="#00b3a9" fill-rule="evenodd"/><path d="M2327.771,1830.229c2.886-2.308,5.771-.576,5.771,2.886a13.587,13.587,0,0,1-5.771,10.39c-3.463,1.729-5.771.576-5.771-3.464C2322,1836.579,2324.308,1831.962,2327.771,1830.229Z" transform="translate(-981.984 -773.568)" fill="#00b3a9" fill-rule="evenodd"/><path d="M2405.77,1762.429c3.464-1.731,5.771-.577,5.771,3.463,0,3.463-2.307,8.08-5.771,9.811-2.885,1.731-5.77.577-5.77-3.462C2400,1768.778,2402.885,1764.162,2405.77,1762.429Z" transform="translate(-1014.968 -745.01)" fill="#00b3a9" fill-rule="evenodd"/><path d="M2484.771,1762.429c2.887-1.731,5.771-.577,5.771,3.463,0,3.463-2.885,8.08-5.771,9.811-3.463,1.731-5.771.577-5.771-3.462C2479,1768.778,2481.309,1764.162,2484.771,1762.429Z" transform="translate(-1048.379 -745.01)" fill="#00b3a9" fill-rule="evenodd"/><path d="M2562.771,1581.23c3.464-2.309,5.77-.578,5.77,2.885,0,4.039-2.306,8.656-5.77,10.389-2.885,1.731-5.771.576-5.771-3.462C2557,1587.578,2559.886,1582.962,2562.771,1581.23Z" transform="translate(-1081.366 -668.263)" fill="#00b3a9" fill-rule="evenodd"/><path d="M2641.349,1671.229c2.885-2.308,5.771-.577,5.771,2.885a13.591,13.591,0,0,1-5.771,10.39c-3.462,1.73-6.349,0-6.349-3.463S2637.887,1672.962,2641.349,1671.229Z" transform="translate(-1114.352 -706.325)" fill="#00b3a9" fill-rule="evenodd"/><path d="M2719.772,1581.23c2.884-2.309,5.768-.578,5.768,2.885a13.591,13.591,0,0,1-5.768,10.389c-3.463,1.731-5.772.576-5.772-3.462C2714,1587.578,2716.31,1582.962,2719.772,1581.23Z" transform="translate(-1147.761 -668.263)" fill="#00b3a9" fill-rule="evenodd"/><path d="M2797.771,1535.5c3.463-1.731,5.771,0,5.771,3.463a12.894,12.894,0,0,1-5.771,10.387c-2.885,1.731-5.771,0-5.771-3.463C2792,1541.85,2794.887,1537.811,2797.771,1535.5Z" transform="translate(-1180.748 -649.083)" fill="#00b3a9" fill-rule="evenodd"/><path d="M2876.771,1535.5c2.887-1.731,5.771,0,5.771,3.463,0,4.038-2.884,8.078-5.771,10.387-3.463,1.731-5.771,0-5.771-3.463A12.892,12.892,0,0,1,2876.771,1535.5Z" transform="translate(-1214.158 -649.083)" fill="#00b3a9" fill-rule="evenodd"/><path d="M2954.77,1490.43c3.464-1.732,5.772-.578,5.772,3.461,0,3.463-2.309,8.08-5.772,9.811-2.885,2.308-5.77.578-5.77-2.884A13.583,13.583,0,0,1,2954.77,1490.43Z" transform="translate(-1247.143 -629.98)" fill="#00b3a9" fill-rule="evenodd"/><path d="M3033.771,1490.43c2.883-1.732,5.77-.578,5.77,3.461,0,3.463-2.887,8.08-5.77,9.811-3.464,2.308-5.771.578-5.771-2.884C3028,1496.777,3030.308,1492.161,3033.771,1490.43Z" transform="translate(-1280.553 -629.98)" fill="#00b3a9" fill-rule="evenodd"/><path d="M1703.731,1973.218h-1.154c-.577-.577-.577-1.154-.577-2.308l45.592-78.485,1.153-.578,44.437-9.233,45.014-94.067.578-1.155,1.153.578,45.013,25.392,43.86-12.7L1973.813,1762l45.591-52.516h.576l45.015-13.273,45.014-38.666.577-.577h44.437l45.012-103.877,1.156-.577,1.152.577,44.438,50.784,43.857-50.784.577-.577,45.014-25.97,1.155-.577h44.436l45.015-25.392.576-.577H2473c.578,0,1.153.577,1.153,1.73a1.24,1.24,0,0,1-1.153,1.155h-45.014l-45.015,25.969h-45.589l-45.014,25.97-45.014,51.938a1.082,1.082,0,0,1-1.73,0l-43.859-50.208L2157.329,1658.7a1.242,1.242,0,0,1-1.153,1.155h-45.015l-45.014,38.665v.577l-45.014,12.7-45.013,51.939-45.59,39.242-.578.577-45.014,12.7h-1.153l-43.859-25.392-44.437,93.489-1.153.577-44.437,9.811-45.014,77.908Z" transform="translate(-719.783 -634.356)" fill="#00b3a9" fill-rule="evenodd"/><path d="M1697.464,2320.006c-1.733,0-3.464-1.73-3.464-4.618,0-3.461,2.886-8.079,6.349-9.811a3.465,3.465,0,0,1,2.308-.577h0l-4.041,6.349v1.155a2.01,2.01,0,0,1,.578,1.152h1.155l1.153-.576,3.463-6.925a4.415,4.415,0,0,1,1.153,2.885c0,3.464-2.885,8.08-5.77,9.812A9.844,9.844,0,0,1,1697.464,2320.006Z" transform="translate(-716.399 -974.794)" fill="#00ab94" fill-rule="evenodd"/><path d="M1779,2189.5l3.463-6.349,4.04-1.154a11.618,11.618,0,0,1-5.2,6.35C1780.154,2188.925,1779.579,2189.5,1779,2189.5Z" transform="translate(-752.345 -922.777)" fill="#00ab94" fill-rule="evenodd"/><path d="M1773.577,2182.85c-.576-.578-.576-1.732-.576-2.887,0-4.037,2.308-8.655,5.769-10.388a4.381,4.381,0,0,1,2.31-.575c2.309,0,3.462,1.154,3.462,4.04v.576l-5.771,1.154-1.153.575Z" transform="translate(-749.809 -917.279)" fill="#00ab94" fill-rule="evenodd"/><path d="M1854.462,2167a3.859,3.859,0,0,1-3.463-4.041v-.576l6.349-1.73,1.154-.577,3.463-7.5a7.319,7.319,0,0,1,.578,3.463,13.766,13.766,0,0,1-5.772,10.387C1856.194,2166.426,1855.041,2167,1854.462,2167Zm-2.308-8.081a13.047,13.047,0,0,1,4.616-6.347c1.155,0,1.731-.576,2.309-.576l-2.886,6.347Z" transform="translate(-782.796 -910.09)" fill="#00ab94" fill-rule="evenodd"/><path d="M1936,2009.769l2.886-5.769,2.886,1.731a15.444,15.444,0,0,1-3.462,2.885A4.378,4.378,0,0,1,1936,2009.769Z" transform="translate(-818.741 -847.5)" fill="#00ab94" fill-rule="evenodd"/><path d="M1931.155,2001.85c-1.154-.577-1.154-1.73-1.154-2.885,0-4.04,2.309-8.656,5.771-10.388a3.465,3.465,0,0,1,2.309-.578c2.31,0,3.463,1.154,3.463,4.041a17.918,17.918,0,0,1-1.153,4.616l-4.041-2.309-1.154-.575-.577,1.152Z" transform="translate(-816.205 -840.733)" fill="#00ab94" fill-rule="evenodd"/><path d="M2011.461,2052.658c-2.308,0-3.462-1.73-3.462-4.04a13.594,13.594,0,0,1,1.154-4.618l4.04,2.31h1.154l4.616-1.154c-.577,2.885-2.886,5.194-5.193,6.926A3.47,3.47,0,0,1,2011.461,2052.658Z" transform="translate(-849.191 -864.415)" fill="#00ab94" fill-rule="evenodd"/><path d="M2016.04,2038.772l-4.04-1.731,3.463-3.464a5.2,5.2,0,0,1,2.885-.577c1.731,0,2.886,1.731,2.886,4.041v.575Z" transform="translate(-850.883 -859.764)" fill="#00ab94" fill-rule="evenodd"/><path d="M2089.885,2025c-1.73,0-2.885-1.152-2.885-4.039h0l5.77-1.731.578-.576,5.2-4.041c0,3.464-2.888,8.08-5.773,9.813A6.29,6.29,0,0,1,2089.885,2025Zm-2.309-7.5a11.208,11.208,0,0,1,5.193-6.347,4.376,4.376,0,0,1,2.31-1.155c1.153,0,1.73.577,2.309,1.73l-5.772,4.617Z" transform="translate(-882.601 -850.037)" fill="#00ab94" fill-rule="evenodd"/><path d="M2168.464,1957c-1.155,0-2.311,0-2.888-1.154l6.349-5.193,4.617-5.2v1.155c0,3.463-2.308,8.081-5.771,9.812A4.37,4.37,0,0,1,2168.464,1957Zm-3.464-4.039c0-3.463,2.888-8.08,5.771-9.811,1.153-.577,1.731-1.154,2.885-1.154a2.011,2.011,0,0,1,1.154.577l-5.194,6.349Z" transform="translate(-915.588 -821.28)" fill="#00ab94" fill-rule="evenodd"/><path d="M2247.731,1872.5a2.118,2.118,0,0,1-1.731-.577l5.192-5.771,4.04-1.156c-.575,2.888-2.885,5.194-5.193,6.928C2249.462,1871.927,2248.308,1872.5,2247.731,1872.5Z" transform="translate(-949.843 -788.716)" fill="#00ab94" fill-rule="evenodd"/><path d="M2243.578,1864.119a1.784,1.784,0,0,1-.577-1.153c0-4.04,2.885-8.079,5.77-10.388a6.276,6.276,0,0,1,2.887-.578c1.73,0,2.885,1.731,2.885,4.04v.578l-5.771,1.731h-.575Z" transform="translate(-948.574 -783.218)" fill="#00ab94" fill-rule="evenodd"/><path d="M2324.887,1844c-1.732,0-2.887-1.153-2.887-4.039h0l6.347-1.732v-.576l5.194-4.041c0,3.463-2.885,8.081-5.771,9.812A5.2,5.2,0,0,1,2324.887,1844Zm-2.312-7.5a11.215,11.215,0,0,1,5.2-6.347,3.47,3.47,0,0,1,5.193,0l-5.77,5.192Z" transform="translate(-981.984 -773.491)" fill="#00ab94" fill-rule="evenodd"/><path d="M2403.885,1782.771c-1.153,0-2.309,0-2.885-1.154l5.771-4.616h4.039c-1.154,2.309-2.308,4.039-4.616,5.193A3.475,3.475,0,0,1,2403.885,1782.771Z" transform="translate(-1015.392 -751.5)" fill="#00ab94" fill-rule="evenodd"/><path d="M2400,1771.965c0-3.462,2.885-8.08,5.77-9.812,1.154-.575,1.73-1.153,2.887-1.153,1.73,0,2.884,1.731,2.884,4.617v1.732h-5.771l-.576.575Z" transform="translate(-1014.968 -744.734)" fill="#00ab94" fill-rule="evenodd"/><path d="M2481.887,1776.428c-1.731,0-2.887-1.154-2.887-4.041v-1.73h5.771a1.242,1.242,0,0,0,1.154-1.154l2.886-7.5a5.242,5.242,0,0,1,1.731,4.039c0,3.463-2.885,8.079-5.771,9.812A5.2,5.2,0,0,1,2481.887,1776.428Zm1.729-8.658h-3.461a8.182,8.182,0,0,1,4.616-5.192,2.119,2.119,0,0,1,1.731-.577Z" transform="translate(-1048.379 -745.156)" fill="#00ab94" fill-rule="evenodd"/><path d="M2564,1602.617l2.309-4.617,1.731,2.309a7.954,7.954,0,0,1-2.309,1.732A2.123,2.123,0,0,1,2564,1602.617Z" transform="translate(-1084.325 -675.8)" fill="#00ab94" fill-rule="evenodd"/><path d="M2558.153,1594.428a4.88,4.88,0,0,1-1.153-3.463c0-3.461,2.886-8.079,5.771-9.809,1.154-.578,1.732-1.156,2.884-1.156,1.732,0,2.886,1.733,2.886,4.042a13.175,13.175,0,0,1-1.729,6.348l-2.887-3.462-1.154-.578-1.153.578Z" transform="translate(-1081.366 -668.188)" fill="#00ab94" fill-rule="evenodd"/><path d="M2638.464,1685c-1.731,0-3.464-1.154-3.464-4.04,0-1.731,1.155-4.039,1.732-5.771l3.463,3.463c0,.577.576.577,1.153.577a.566.566,0,0,0,.578-.577l5.192-5.193v.577a13.586,13.586,0,0,1-5.771,10.387A6.263,6.263,0,0,1,2638.464,1685Zm2.885-9.234-2.885-2.886c1.151-.577,1.731-1.729,2.885-1.729a4.38,4.38,0,0,1,2.31-1.155c.575,0,1.151.577,1.729.577Z" transform="translate(-1114.352 -706.25)" fill="#00ab94" fill-rule="evenodd"/><path d="M2718.155,1599.234c-.58,0-1.155,0-1.155-.577l4.617-5.771,5.193-2.886a13.062,13.062,0,0,1-5.771,8.657A5.2,5.2,0,0,1,2718.155,1599.234Z" transform="translate(-1149.031 -672.417)" fill="#00ab94" fill-rule="evenodd"/><path d="M2714,1592.121v-1.156c0-3.461,2.31-8.079,5.772-9.809,1.152-.578,1.731-1.156,2.31-1.156,1.727,0,2.885,1.156,3.458,2.886l-6.347,3.464-.573.578Z" transform="translate(-1147.761 -668.188)" fill="#00ab94" fill-rule="evenodd"/><path d="M2795.886,1556.348a2.727,2.727,0,0,1-2.887-2.886l5.771-3.462h4.039a9.177,9.177,0,0,1-4.617,5.771A3.465,3.465,0,0,1,2795.886,1556.348Z" transform="translate(-1181.17 -655.501)" fill="#00ab94" fill-rule="evenodd"/><path d="M2793,1544.234a14.725,14.725,0,0,1,5.193-8.656,5.2,5.2,0,0,1,2.886-.578c1.731,0,2.885,1.731,2.885,4.04v1.732h-5.192l-1.154.577Z" transform="translate(-1181.17 -649.157)" fill="#00ab94" fill-rule="evenodd"/><path d="M2873.887,1550c-1.733,0-2.887-1.731-2.887-4.04v-2.309h6.347l5.194-2.884a19.1,19.1,0,0,1-5.771,8.655A5.2,5.2,0,0,1,2873.887,1550Zm2.3-9.233h-4.038a19.894,19.894,0,0,1,4.617-5.194,3.465,3.465,0,0,1,2.308-.578c1.731,0,2.884,1.154,3.463,2.885Z" transform="translate(-1214.158 -649.157)" fill="#00ab94" fill-rule="evenodd"/><path d="M2952.461,1511.348c-1.729,0-2.886-1.154-3.461-2.885l6.348-3.463h4.039a13.6,13.6,0,0,1-4.617,5.193A4.365,4.365,0,0,1,2952.461,1511.348Z" transform="translate(-1247.143 -636.471)" fill="#00ab94" fill-rule="evenodd"/><path d="M2949,1499.234a13.052,13.052,0,0,1,5.77-8.656,5.207,5.207,0,0,1,2.888-.578c1.729,0,2.885,1.154,2.885,4.04v1.731h-5.772l-.575.577Z" transform="translate(-1247.143 -630.127)" fill="#00ab94" fill-rule="evenodd"/><path d="M3030.886,1505c-1.73,0-2.886-1.731-2.886-4.04v-2.309h5.771a1.239,1.239,0,0,0,1.151-1.153h0c0-1.155-.575-1.732-1.151-1.732h-4.616a8.175,8.175,0,0,1,4.616-5.193,3.459,3.459,0,0,1,2.307-.578c1.73,0,3.463,1.154,3.463,4.04,0,3.463-2.887,8.08-5.77,9.811A9.764,9.764,0,0,1,3030.886,1505Z" transform="translate(-1280.553 -630.127)" fill="#00ab94" fill-rule="evenodd"/><path d="M1703.731,1973.218h-1.154a2.015,2.015,0,0,0-.577-1.154v-1.154l41.552-70.983,4.04-7.5,1.153-.578,5.771-1.154,34.625-7.5,4.04-.576,45.014-94.067.578-1.155,1.153.578,40.974,23.661,4.039,1.731,5.193-1.155,34.627-10.387,4.04-1.155,5.77-4.616,34.628-30.009,4.615-4.04,40.975-46.746,4.616-5.77h.576l5.772-1.732,34.624-10.387,4.618-1.154,5.771-5.195,34.048-29.431,5.2-4.04.577-.577h44.437l45.012-103.877,1.156-.577,1.152.577,44.438,50.784,43.857-50.784.577-.577,6.351-3.462,34.046-19.623,4.617-2.885,1.155-.577h44.436l6.349-2.886,33.472-19.62,5.194-2.886.576-.577H2473c.578,0,1.153.577,1.153,1.73a1.24,1.24,0,0,1-1.153,1.155h-45.014l-6.348,3.462-38.667,22.506h-45.589l-5.772,3.462-34.046,19.622-5.2,2.886-4.616,5.771-40.4,46.168a.564.564,0,0,1-.576.577c-.577,0-1.154,0-1.154-.577l-42.129-47.9-1.73-2.308-2.31,4.617-39.242,90.027-2.886,7.5a1.242,1.242,0,0,1-1.153,1.155h-45.015l-5.771,4.617-13.272,11.541-1.73,1.732-19.046,16.735-5.193,4.04v.577l-6.348,1.731-15.581,4.617-3.464.577-15.58,4.617-4.041,1.154-5.193,5.772-35.2,40.973-4.616,5.194-6.35,5.194-34.048,30.009-5.192,4.039-.578.577-5.771,1.731-39.242,10.966h-1.153l-40.975-23.662-2.885-1.73-2.885,5.771-38.089,80.216-3.464,7.5-1.153.577-6.348,1.732-38.089,8.079-3.462,6.348-38.088,64.635-3.464,6.925Z" transform="translate(-719.783 -634.356)" fill="#00ab94" fill-rule="evenodd"/><path d="M1743.039,1950.984l43.859-25.393c1.731-1.154,3.463-.577,3.463,2.309a8.794,8.794,0,0,1-3.463,6.348l-43.859,25.393c-2.308,1.155-4.038.577-4.038-1.73A8.006,8.006,0,0,1,1743.039,1950.984Z" transform="translate(-735.431 -814.105)" fill="#d7d9d9" fill-rule="evenodd"/><path d="M1700.349,1988.5c2.885-1.731,5.77,0,5.77,3.463s-2.885,8.079-5.77,9.811c-3.463,2.308-6.349.578-6.349-2.886A12.658,12.658,0,0,1,1700.349,1988.5Z" transform="translate(-716.399 -840.658)" fill="#00b3a9" fill-rule="evenodd"/><path d="M1697.464,2003a3.859,3.859,0,0,1-3.464-4.039,12.658,12.658,0,0,1,6.349-10.388,3.46,3.46,0,0,1,2.308-.578c1.73,0,3.462,1.154,3.462,4.041,0,3.462-2.885,8.079-5.77,9.81A9.788,9.788,0,0,1,1697.464,2003Z" transform="translate(-716.399 -840.733)" fill="#00ab94" fill-rule="evenodd"/><path d="M1743.039,1996.061l43.859-25.393c1.731-1.153,3.463,0,3.463,2.309a8.794,8.794,0,0,1-3.463,6.348l-43.859,25.394c-2.308,1.729-4.038.576-4.038-1.732S1740.731,1997.215,1743.039,1996.061Z" transform="translate(-735.431 -833.212)" fill="#d7d9d9" fill-rule="evenodd"/><path d="M1700.349,2033.5c2.885-1.732,5.77,0,5.77,3.463,0,4.04-2.885,8.079-5.77,10.388-3.463,1.732-6.349,0-6.349-3.463C1694,2039.85,1696.886,2035.811,1700.349,2033.5Z" transform="translate(-716.399 -859.689)" fill="#00b3a9" fill-rule="evenodd"/><path d="M1703.837,2539.991l-1.154-.576a1.083,1.083,0,0,1,0-1.732l23.084-23.659,22.506-2.886,22.508-29.433,23.083,2.886,21.931-19.62,22.507-13.852,23.082-31.741,23.085,6.927,21.93-19.622a1.081,1.081,0,0,1,1.73,0,1.755,1.755,0,0,1,0,2.309l-23.083,20.775-22.506-7.5-22.508,31.165-22.507,13.271-23.084,20.776-22.506-2.885-22.508,28.854-22.507,2.886-22.507,23.084Z" transform="translate(-719.889 -1017.613)" fill="#00b3a9" fill-rule="evenodd"/><path d="M1710.464,2509.278v2.886c.575.577.575,1.152,1.153,1.731a2.119,2.119,0,0,0,1.731.577,3.473,3.473,0,0,0,2.309-.577,8,8,0,0,0,2.308-1.731c.577-1.154,1.155-1.731,1.731-2.886.576-.577.576-1.732,1.153-2.886v-5.771c-.577-1.154-.577-1.73-1.153-1.73-.576-.577-1.154-1.153-1.731-1.153s-1.153.576-2.308,1.153c-.578,0-1.732,1.152-2.309,1.73a12.6,12.6,0,0,0-1.731,2.886c-.578.578-.578,1.731-1.153,2.886Zm4.039-14.428.576-.577h.578a4.237,4.237,0,0,1,3.463-1.155,3.177,3.177,0,0,1,2.885,1.155,6.165,6.165,0,0,1,1.731,2.885,8.56,8.56,0,0,1,.577,4.04,15.979,15.979,0,0,1-.577,5.194q-.866,2.6-1.731,5.193a24.715,24.715,0,0,1-2.885,4.042,15.4,15.4,0,0,1-3.463,2.885,8.216,8.216,0,0,1-3.464,1.154c-1.154,0-1.729-.578-2.886-1.154a12.674,12.674,0,0,1-1.729-2.885c0-1.155-.578-2.887-.578-4.618a3.465,3.465,0,0,1,.578-2.309c0-1.155,0-2.309.576-2.887a5.2,5.2,0,0,1,.577-2.885c0-.576.576-1.731.576-2.309l6.35-17.312v-.577l1.154-.576,1.73-1.155h.578v1.155h0Z" transform="translate(-721.898 -1049.226)" fill="#42616a" fill-rule="evenodd"/><path d="M1744.463,2491.047l.577,1.733.576.577c.578,0,1.155.576,1.732,0a4.36,4.36,0,0,0,2.308-.577,8.006,8.006,0,0,1,2.31-1.733,2.994,2.994,0,0,0,1.154-2.306,4.378,4.378,0,0,0,1.153-2.311,7.318,7.318,0,0,0,.577-3.463c0-1.153,0-1.73-.577-2.308a1.24,1.24,0,0,0-1.153-1.154c0-.578-.577-.578-1.154,0a3.473,3.473,0,0,0-2.31.577l-2.885,1.731h-.577v-3.462l.577-1.154,5.771-13.273-9.235,5.193h-1.153v-3.463l1.153-1.152,12.7-7.5.577.577.577.576v1.731l-.577,1.155v1.155l-5.771,12.693c.576-.577,1.731-.577,2.886-.577a3.469,3.469,0,0,1,2.308.577,3,3,0,0,1,1.154,2.31,8.54,8.54,0,0,1,.578,4.039,15.95,15.95,0,0,1-.578,5.193,7.668,7.668,0,0,1-1.731,4.616c-.577,1.155-1.73,2.311-2.308,3.463-1.154,1.154-2.309,1.731-3.464,2.886a11.952,11.952,0,0,1-3.462,1.154c-1.154,0-2.31,0-2.887-.577s-1.153-1.155-1.73-1.731c0-1.155-.577-2.308-.577-3.461l.577-.578.577-.576,1.153-1.155h.577Z" transform="translate(-736.276 -1039.076)" fill="#42616a" fill-rule="evenodd"/><path d="M1778.464,2471.47l.577,1.732.577.577a2.116,2.116,0,0,0,1.73.577,4.375,4.375,0,0,0,2.309-1.154c.578-.576,1.731-1.153,2.31-1.732s1.152-1.152,1.152-1.73c.577-1.154,1.153-1.731,1.153-2.886a6.255,6.255,0,0,0,.579-2.886c0-1.153,0-2.308-.579-2.886a2.012,2.012,0,0,0-.576-1.152h-1.729c-.578,0-1.155.576-2.31.576l-2.309,1.73h-1.155v-3.461l.578-1.155,5.772-13.272-9.235,5.77h-.577l-.577-1.154v-1.729l.577-1.154.577-.575,12.7-7.5h.577l.577.576v2.886l-.577,1.155-5.771,13.271c1.155-.577,1.732-1.154,2.885-1.154s1.732,0,2.309.577,1.154,1.732,1.731,2.309c0,1.155.577,2.886.577,4.04a16.84,16.84,0,0,1-1.154,5.193,6.551,6.551,0,0,1-1.73,4.616,12.093,12.093,0,0,1-2.31,3.465,15.36,15.36,0,0,1-3.462,2.886,8.2,8.2,0,0,1-3.464,1.153c-1.152,0-2.308,0-2.885-.576s-1.154-1.156-1.73-1.731c0-1.155-.578-1.731-.578-2.887l.578-1.153.576-.577,1.154-1.154h.577Z" transform="translate(-750.655 -1031.039)" fill="#42616a" fill-rule="evenodd"/><path d="M1709.039,2585.356,1904.1,2471.668c2.308-1.153,4.04,0,4.04,2.308s-1.732,5.2-4.04,6.927l-195.059,113.11c-2.309,1.152-4.039.576-4.039-2.309A7.826,7.826,0,0,1,1709.039,2585.356Z" transform="translate(-721.051 -1045.087)" fill="#d7d9d9" fill-rule="evenodd"/><path d="M1709.039,2423.06l43.859-25.391c1.73-1.155,3.463,0,3.463,2.306a8.8,8.8,0,0,1-3.463,6.351l-43.859,25.393c-2.309,1.731-4.039.576-4.039-1.732S1706.73,2424.79,1709.039,2423.06Z" transform="translate(-721.051 -1013.792)" fill="#d7d9d9" fill-rule="evenodd"/><path d="M1703.837,2797.353l-1.154-.577a1.081,1.081,0,0,1,0-1.73l23.084-23.659,22.506-2.885,23.084-20.2,21.93-5.772,22.508-45.591,23.083,10.966,22.506-19.619h.578l21.93-4.041,21.93-38.667c.577-.576,1.154-.576,2.308-.576a1.757,1.757,0,0,1,0,2.31l-22.507,39.241-23.082,4.617-23.084,20.2-21.931-10.963-22.507,44.436-23.083,6.349-22.508,20.2-22.507,2.884-22.507,22.506Z" transform="translate(-719.889 -1118.582)" fill="#00b3a9" fill-rule="evenodd"/><path d="M1703.731,2797.353l-1.154-.577a.565.565,0,0,1-.577-.576c0-.576,0-1.154.577-1.154l23.085-23.659,22.506-2.885,23.084-20.2,21.93-5.772,22.507-45.591,23.085,10.966,22.506-19.619h.576l21.931-4.041,21.93-38.667a2.016,2.016,0,0,0,1.154-.576h1.153c0,.576.577,1.156.577,1.732l-.577.577-22.506,39.241-23.085,4.617-23.083,20.2-21.93-10.963-22.507,44.436-23.084,6.349-22.506,20.2-22.508,2.884-22.507,22.506Z" transform="translate(-719.783 -1118.582)" fill="#00ab94" fill-rule="evenodd"/><path d="M1716.964,2788.049l-.577,1.154-.576.576-1.154,1.155-.578-.58-.575-.575V2761.5l-5.2,9.809-.576.578h-.577l-1.155-1.155v-1.154l.578-1.152,6.926-12.7.575-.576h.578l1.154-1.154h.576l.577,1.154Z" transform="translate(-721.475 -1164.678)" fill="#42616a" fill-rule="evenodd"/><path d="M1742.389,2755.735a8.208,8.208,0,0,0,1.152-3.463,8.573,8.573,0,0,0,.576-4.04,8.351,8.351,0,0,0-1.152-4.039,2.58,2.58,0,0,0-2.886,0,8.019,8.019,0,0,0-2.309,1.73c-.577.578-.577,1.733-1.155,2.309s-.577,1.731-1.152,2.311v2.885l-.577,1.153-.578.577-1.73.577H1732v-.577a11.263,11.263,0,0,1,.578-4.041c.576-1.729,1.153-2.885,1.73-4.615a33.474,33.474,0,0,1,2.308-4.04c1.155-1.153,2.31-1.732,3.464-2.886a6.285,6.285,0,0,1,2.886-.576c1.152,0,1.731,0,2.308.576.576,1.153,1.153,1.732,1.731,2.886,0,1.155.577,2.311.577,4.04a24.909,24.909,0,0,1-.577,2.886,5.192,5.192,0,0,1-.578,2.885c0,1.155-.577,1.732-.577,2.886a12.564,12.564,0,0,1-1.731,2.887l-7.5,15,10.389-5.773h.577v4.043l-.577.575-14.427,8.081H1732v-3.464c0-.577,0-.577.578-1.154Z" transform="translate(-732.469 -1158.332)" fill="#42616a" fill-rule="evenodd"/><path d="M1768.887,2745.121c0,3.466.576,5.2,1.729,6.349q.866,1.734,3.464,0c1.731-1.152,3.462-2.308,4.039-4.614,1.155-1.734,1.731-4.617,1.731-8.081v-8.656c0-2.886-.576-5.194-1.731-6.35-.577-.575-2.308-.575-4.039,0a8.987,8.987,0,0,0-3.464,4.618,16.792,16.792,0,0,0-1.729,8.08v8.654Zm13.85-16.734v8.657a17.788,17.788,0,0,1-.578,5.773c-.576,2.3-.576,4.038-1.731,5.77a14.478,14.478,0,0,1-2.309,4.039,7.76,7.76,0,0,1-4.039,3.462,8.234,8.234,0,0,1-3.464,1.154c-1.152,0-1.729-.579-2.884-1.73a4.884,4.884,0,0,1-1.154-3.464c-.577-1.154-.577-2.886-.577-5.192V2738.2a19.615,19.615,0,0,1,.577-5.771,16.851,16.851,0,0,1,1.154-5.2c1.155-1.729,1.731-3.464,2.884-4.617s2.309-2.306,3.464-3.462c1.731-.578,2.885-1.153,4.039-1.153a7.935,7.935,0,0,1,2.309,1.729c1.155,1.156,1.155,2.31,1.731,3.464A15.947,15.947,0,0,1,1782.736,2728.387Z" transform="translate(-746.849 -1149.453)" fill="#42616a" fill-rule="evenodd"/><path d="M1709.039,2856.687,1904.1,2743.577c2.308-1.155,4.04-.577,4.04,1.731a8,8,0,0,1-4.04,6.923l-195.059,113.111c-2.309,1.731-4.039.577-4.039-1.729S1706.73,2857.842,1709.039,2856.687Z" transform="translate(-721.051 -1160.026)" fill="#d7d9d9" fill-rule="evenodd"/><path d="M1709.039,2694.781l43.859-25.391c1.73-1.733,3.463-.578,3.463,1.729s-1.732,5.772-3.463,6.925l-43.859,25.4c-2.309,1.152-4.039,0-4.039-2.311A7.829,7.829,0,0,1,1709.039,2694.781Z" transform="translate(-721.051 -1128.542)" fill="#d7d9d9" fill-rule="evenodd"/><path d="M2173.878,2267.414h-1.155c-.577-1.152-.577-1.73.577-2.308l22.509-17.891,22.507-25.97,23.082-3.461,22.507-5.194,22.508-26.547,22.506,3.461,22.506-35.2h23.087l21.929-19.62a1.753,1.753,0,0,1,2.307,0c.578.578,0,1.73,0,1.73l-23.082,20.775-22.508-.575-23.084,36.355-22.506-4.039-22.509,26.548-23.081,5.193-21.933,2.884-22.506,25.394-22.507,18.466Z" transform="translate(-918.693 -902.583)" fill="#00b3a9" fill-rule="evenodd"/><path d="M2180.887,2236.855a5.217,5.217,0,0,0,.576,2.887c0,.575.576,1.152,1.152,1.729s.576.579,1.731.579a4.355,4.355,0,0,0,2.311-.579q.864-.864,1.73-1.729c1.153-1.156,1.729-1.732,1.729-2.887.578-1.155,1.157-1.732,1.157-2.888a7.312,7.312,0,0,0,.576-3.46,3.484,3.484,0,0,0-.576-2.312,3,3,0,0,0-1.157-2.306,2.523,2.523,0,0,0-1.729-.577c-.578,0-1.154.577-1.73.577a4.522,4.522,0,0,0-2.311,2.306,3.1,3.1,0,0,0-1.731,2.312,8.219,8.219,0,0,0-1.152,3.46A5.217,5.217,0,0,0,2180.887,2236.855Zm4.615-14.428.576-.576.579-.576a7.286,7.286,0,0,1,3.46-.579,3.461,3.461,0,0,1,2.31.579c1.155,1.152,1.731,1.729,1.731,2.884a12.728,12.728,0,0,1,.576,4.617,15.981,15.981,0,0,1-.576,5.191,9.307,9.307,0,0,1-1.731,5.2c-.576,1.153-1.731,2.886-2.31,4.04a15.337,15.337,0,0,1-3.46,2.885,22.738,22.738,0,0,1-3.466,1.154,4.417,4.417,0,0,1-2.884-1.154,12.825,12.825,0,0,1-1.733-2.885,11.309,11.309,0,0,1-.574-4.618V2235.7c0-.577.574-1.732.574-2.309,0-1.153.581-1.729.581-2.884.576-.579.576-1.731,1.152-2.312l5.771-17.31.579-.578.576-1.154,1.731-1.154.576.578.576.576-.576.579h0Z" transform="translate(-921.085 -933.772)" fill="#42616a" fill-rule="evenodd"/><path d="M2222.388,2206.313c.578-1.154,1.154-2.886,1.729-4.04,0-.576.58-2.309.58-3.464,0-2.308-.58-3.461-1.155-4.039q-.864-1.731-3.464,0-.864.867-1.729,1.731a7627.109,7627.109,0,0,0-2.309,4.617,25.16,25.16,0,0,0-.575,2.886v.578l-.58.576-1.73,1.154h-.577v-.577a9.82,9.82,0,0,1,.577-4.039,10.837,10.837,0,0,1,1.155-4.617,24.449,24.449,0,0,1,2.885-4.04,6.967,6.967,0,0,1,2.884-2.886,8.213,8.213,0,0,1,3.464-1.155,4,4,0,0,1,3.463,4.041,7.294,7.294,0,0,1,.579,3.462v3.463a24.9,24.9,0,0,0-.579,2.887c-.576.576-.576,1.731-1.153,2.885a9.837,9.837,0,0,1-1.154,2.887l-7.5,15,9.811-5.771h1.152v3.459l-1.152,1.156-13.851,8.079h-.577L2212,2229.4v-2.887c.578,0,.578-.578.578-1.154Z" transform="translate(-935.462 -925.737)" fill="#42616a" fill-rule="evenodd"/><path d="M2258.428,2167h.579l.575.576v2.888l-.575,1.73-7.5,33.471v.579l-.575,1.152-1.734.578h-.577v-1.155h0l7.5-33.472-10.966,5.77h-.577l-.578-.575v-1.731l.578-1.153.577-1.154Z" transform="translate(-948.997 -916.433)" fill="#42616a" fill-rule="evenodd"/><path d="M2179.04,2313.355l195.635-113.687c2.309-1.155,4.04,0,4.04,2.308a7.829,7.829,0,0,1-4.04,6.349L2179.04,2322.013c-2.308,1.154-4.04,0-4.04-2.31A7.835,7.835,0,0,1,2179.04,2313.355Z" transform="translate(-919.817 -930.057)" fill="#d7d9d9" fill-rule="evenodd"/><path d="M2179.04,2150.983l43.86-25.392c2.308-1.154,4.04-.578,4.04,2.309a7.832,7.832,0,0,1-4.04,6.348l-43.86,25.393c-2.308,1.153-4.04.576-4.04-1.733S2176.732,2152.139,2179.04,2150.983Z" transform="translate(-919.817 -898.685)" fill="#d7d9d9" fill-rule="evenodd"/><path d="M2173.979,2539.31h-.578c-.576-.575-1.153-1.73-.576-2.307l23.084-38.089,23.083,4.615,21.931-5.771,22.507-27.7,22.506-5.771,23.085-40.973,23.66,6.926,21.929-4.042,21.93-20.2a3.468,3.468,0,0,1,2.31.578c.577.576,0,1.154-.578,1.729l-22.506,20.2h-.577l-23.084,4.616-21.932-6.348-21.927,39.82-23.085,5.769-22.506,27.7h-.576l-22.509,6.349h-.577l-21.929-4.039-21.929,36.359Z" transform="translate(-918.796 -1017.509)" fill="#00b3a9" fill-rule="evenodd"/><path d="M2174.154,2539.31h-.577a2.114,2.114,0,0,1-.577-1.73V2537l23.085-38.089,23.083,4.615,21.932-5.771,22.506-27.7,22.507-5.771,23.082-40.973,23.662,6.926,21.93-4.042,21.931-20.2h1.153c.578,0,.578,0,1.153.578v.576c0,.578,0,1.153-.575,1.153l-22.507,20.2h-.579l-23.082,4.616-21.932-6.348-21.929,39.82-23.082,5.769-22.51,27.7h-.576l-22.5,6.349h-.579l-21.928-4.039-21.931,36.359Z" transform="translate(-918.971 -1017.509)" fill="#00ab94" fill-rule="evenodd"/><path d="M2190.851,2490.388c0-1.154-.576-1.731-.576-2.886-.578-.576-.578-1.153-1.155-1.731-.576,0-1.154-.574-1.731-.574s-1.154.574-1.731.574a8.016,8.016,0,0,0-2.309,1.731c-.576,1.154-1.154,1.731-1.731,2.886-.577.578-.577,1.731-1.152,2.886v5.771c.575.575.575,1.154,1.152,1.731a2.121,2.121,0,0,0,1.731.577,4.361,4.361,0,0,0,2.309-.577c.577-.577,1.154-1.156,1.731-1.731s1.155-1.731,1.731-2.309c.577-1.153.577-2.309,1.155-2.885C2190.274,2492.7,2190.851,2491.542,2190.851,2490.388Zm-4.617,14.429-.577.576h0a8.21,8.21,0,0,1-3.463,1.153,4.381,4.381,0,0,1-2.308-1.153,4.5,4.5,0,0,1-2.309-2.308c0-1.154-.577-2.886-.577-4.616s.577-3.464.577-5.2q.866-2.6,1.73-5.193c1.156-1.154,1.731-2.884,2.886-4.039a15.252,15.252,0,0,1,3.463-2.887,8.219,8.219,0,0,1,3.463-1.155c.577.579,1.731.579,2.309,1.155a12.561,12.561,0,0,1,1.731,2.887,11.264,11.264,0,0,1,.576,4.615v2.886c-.576.577-.576,1.731-1.153,2.886a25,25,0,0,0-.577,2.886c-.577.576-.577,1.731-1.154,2.307l-5.771,17.314-.577.576-.578.578-1.731,1.154h-.577v-1.154h0Z" transform="translate(-920.662 -1048.802)" fill="#42616a" fill-rule="evenodd"/><path d="M2212.887,2491.474l.576,1.731,1.153.576c.578.576.578.576,1.732.576.577-.576,1.153-.576,2.309-1.152l1.73-1.731a8.008,8.008,0,0,0,1.731-2.309,3,3,0,0,0,1.156-2.309,7.337,7.337,0,0,0,.576-3.464,3.464,3.464,0,0,0-.576-2.306,1.244,1.244,0,0,0-1.156-1.157h-1.731c-.575,0-1.153.579-1.73.579l-2.887,1.729h-.576v-3.461l.576-1.155,5.771-13.272-9.81,5.771h-.578v-4.038l.578-.578L2225,2458h.579v3.464l-.579,1.154-5.771,13.273a8.208,8.208,0,0,1,3.463-1.154,3.46,3.46,0,0,1,2.308.578,4.352,4.352,0,0,1,1.152,2.307,9.809,9.809,0,0,1,.578,4.039,15.959,15.959,0,0,1-.578,5.2c-.573,1.731-1.152,2.885-1.729,4.617a15.279,15.279,0,0,1-2.887,3.462,6.952,6.952,0,0,1-2.885,2.886c-1.731.576-2.887,1.155-4.041,1.155s-1.729,0-2.307-.579l-1.732-1.73a6.277,6.277,0,0,1-.577-2.886v-1.153l.577-.578,1.732-1.154h.577Z" transform="translate(-934.618 -1039.499)" fill="#42616a" fill-rule="evenodd"/><path d="M2179.04,2584.5l195.635-113.111c2.309-1.73,4.04-.577,4.04,1.732s-1.731,5.77-4.04,6.925l-195.635,113.11c-2.308,1.155-4.04.576-4.04-1.734A8,8,0,0,1,2179.04,2584.5Z" transform="translate(-919.817 -1044.807)" fill="#d7d9d9" fill-rule="evenodd"/><path d="M2179.04,2422.637l43.86-25.968c2.308-1.155,4.04,0,4.04,2.306s-1.732,5.193-4.04,6.925l-43.86,25.394c-2.308,1.152-4.04,0-4.04-2.308A7.83,7.83,0,0,1,2179.04,2422.637Z" transform="translate(-919.817 -1013.369)" fill="#d7d9d9" fill-rule="evenodd"/><path d="M2685,1921.648c9.235-5.771,18.468-5.771,25.393-1.731L2685,1989.168Z" transform="translate(-1135.497 -810.739)" fill="#00b3a9" fill-rule="evenodd"/><path d="M2640,1952.7c7.5-12.119,16.158-21.93,25.967-27.7v67.52Z" transform="translate(-1116.468 -814.091)" fill="#00b3a9" fill-rule="evenodd"/><path d="M2612,2016.283A134.423,134.423,0,0,1,2628.158,1973l25.971,39.819Z" transform="translate(-1104.626 -834.39)" fill="#00b3a9" fill-rule="evenodd"/><path d="M2665.968,1992.52,2640,1952.7c7.5-12.119,16.158-21.93,25.967-27.7Z" transform="translate(-1116.468 -814.091)" fill="#87f97d" fill-rule="evenodd"/><path d="M2612,2015.7a136.385,136.385,0,0,1,16.158-42.7A136.385,136.385,0,0,0,2612,2015.7Z" transform="translate(-1104.626 -834.39)" fill="#a8aaab" fill-rule="evenodd"/><path d="M2612,2016.283v-.578a136.385,136.385,0,0,1,16.158-42.7h0l25.971,39.819Z" transform="translate(-1104.626 -834.39)" fill="#8ef985" fill-rule="evenodd"/><path d="M2710.393,1922c7.5,4.041,13.273,12.119,16.16,24.239L2685,1991.253Z" transform="translate(-1135.497 -812.821)" fill="#00b3a9" fill-rule="evenodd"/><path d="M2610.731,2087.012a99.188,99.188,0,0,1-1.731-19.619,135.04,135.04,0,0,1,1.731-21.93L2652.86,2042Z" transform="translate(-1103.356 -863.57)" fill="#00b3a9" fill-rule="evenodd"/><path d="M2726.553,2036a134.354,134.354,0,0,1-16.16,43.283L2685,2039.463Z" transform="translate(-1135.497 -861.032)" fill="#00b3a9" fill-rule="evenodd"/><path d="M2665.968,2109.519c-9.809,5.771-18.466,5.771-25.967,2.31L2665.968,2042Z" transform="translate(-1116.468 -863.57)" fill="#00b3a9" fill-rule="evenodd"/><path d="M2612,2087.012,2654.129,2042l-25.971,69.828C2620.658,2107.788,2614.887,2099.132,2612,2087.012Z" transform="translate(-1104.626 -863.57)" fill="#00b3a9" fill-rule="evenodd"/><path d="M2726.553,1964a96.385,96.385,0,0,1,2.308,19.621,134.326,134.326,0,0,1-2.308,21.93L2685,2009.014Z" transform="translate(-1135.497 -830.584)" fill="#00b3a9" fill-rule="evenodd"/><path d="M2710.393,2081.819c-6.925,12.12-16.157,22.506-25.393,27.7V2042Z" transform="translate(-1135.497 -863.57)" fill="#00b3a9" fill-rule="evenodd"/><path d="M2644.04,2199.969l43.858-25.393c2.308-1.153,4.039-.576,4.039,1.734a8.009,8.009,0,0,1-4.039,6.925l-43.858,25.393c-2.308,1.153-4.039.576-4.039-1.732A8.013,8.013,0,0,1,2644.04,2199.969Z" transform="translate(-1116.468 -919.393)" fill="#42616a" fill-rule="evenodd"/><path d="M2627.04,2246.745l62.9-36.356c2.308-1.73,4.039-.575,4.039,1.729s-1.731,5.2-4.039,6.929l-62.9,36.355c-2.309,1.153-4.04.577-4.04-1.731A8.005,8.005,0,0,1,2627.04,2246.745Z" transform="translate(-1109.276 -934.43)" fill="#d7d9d9" fill-rule="evenodd"/><path d="M2627.04,2291.936l62.9-36.359c2.308-1.152,4.039-.576,4.039,1.732a8.009,8.009,0,0,1-4.039,6.926l-62.9,36.935c-2.309,1.155-4.04,0-4.04-2.31S2624.731,2293.665,2627.04,2291.936Z" transform="translate(-1109.276 -953.649)" fill="#d7d9d9" fill-rule="evenodd"/><path d="M2627.04,2337.6l62.9-36.937c2.308-1.152,4.039,0,4.039,2.31a7.83,7.83,0,0,1-4.039,6.347l-62.9,36.934c-2.309,1.155-4.04.577-4.04-2.308A7.823,7.823,0,0,1,2627.04,2337.6Z" transform="translate(-1109.276 -972.772)" fill="#d7d9d9" fill-rule="evenodd"/><path d="M2959,1762.576c9.812-5.771,18.467-5.771,25.97-2.308L2959,1830.1Z" transform="translate(-1251.371 -743.426)" fill="#00b3a9" fill-rule="evenodd"/><path d="M2914,1793.7c7.5-12.118,16.157-22.508,25.97-27.7v67.52Z" transform="translate(-1232.342 -746.849)" fill="#00b3a9" fill-rule="evenodd"/><path d="M2887,1857.282A148.538,148.538,0,0,1,2902.581,1814l25.97,39.819Z" transform="translate(-1220.922 -767.148)" fill="#00b3a9" fill-rule="evenodd"/><path d="M2984.97,1762c7.5,4.039,13.272,12.694,16.158,24.814L2959,1831.828Z" transform="translate(-1251.371 -745.156)" fill="#00b3a9" fill-rule="evenodd"/><path d="M2885.31,1928.014c-1.733-5.771-2.31-12.119-2.31-19.622a91.147,91.147,0,0,1,2.31-21.929L2926.86,1883Z" transform="translate(-1219.233 -796.329)" fill="#00b3a9" fill-rule="evenodd"/><path d="M3001.128,1877a134.315,134.315,0,0,1-16.158,43.282L2959,1880.463Z" transform="translate(-1251.371 -793.791)" fill="#00b3a9" fill-rule="evenodd"/><path d="M2939.969,1950.52c-9.812,5.771-18.468,5.771-25.97,1.732l25.97-69.252Z" transform="translate(-1232.342 -796.329)" fill="#00b3a9" fill-rule="evenodd"/><path d="M2887,1928.014,2928.551,1883l-25.97,69.252C2895.657,1948.789,2889.887,1940.133,2887,1928.014Z" transform="translate(-1220.922 -796.329)" fill="#00b3a9" fill-rule="evenodd"/><path d="M2939.969,1766v67.52L2914,1793.7C2921.5,1781.582,2930.156,1771.192,2939.969,1766Z" transform="translate(-1232.342 -746.849)" fill="#8ef985" fill-rule="evenodd"/><path d="M2887,1857.282A148.538,148.538,0,0,1,2902.581,1814h0l25.97,39.819Z" transform="translate(-1220.922 -767.148)" fill="#8ef985" fill-rule="evenodd"/><path d="M2885.31,1928.014c-1.733-5.771-2.31-12.119-2.31-19.622a91.147,91.147,0,0,1,2.31-21.929h0L2926.86,1883Z" transform="translate(-1219.233 -796.329)" fill="#8ef985" fill-rule="evenodd"/><path d="M2902.581,1952.252c-6.924-3.464-12.694-12.119-15.582-24.238L2928.551,1883Z" transform="translate(-1220.922 -796.329)" fill="#8ef985" fill-rule="evenodd"/><path d="M3001.128,1805a99.118,99.118,0,0,1,1.731,19.62,134.943,134.943,0,0,1-1.731,21.931L2959,1850.014Z" transform="translate(-1251.371 -763.342)" fill="#00b3a9" fill-rule="evenodd"/><path d="M2984.97,1922.82c-7.5,12.119-16.158,22.506-25.97,27.7V1883Z" transform="translate(-1251.371 -796.329)" fill="#00b3a9" fill-rule="evenodd"/><path d="M2918.039,2041.638l43.859-25.97c2.309-1.154,4.039,0,4.039,2.31s-1.73,5.193-4.039,6.923l-43.859,25.393c-2.306,1.154-4.04,0-4.04-2.309A7.834,7.834,0,0,1,2918.039,2041.638Z" transform="translate(-1232.342 -852.243)" fill="#42616a" fill-rule="evenodd"/><path d="M2901.464,2088.525l63.479-36.935c2.309-1.154,4.04-.576,4.04,2.31a7.824,7.824,0,0,1-4.04,6.346l-63.479,36.936c-1.731,1.153-3.464,0-3.464-2.308A8.793,8.793,0,0,1,2901.464,2088.525Z" transform="translate(-1225.577 -867.391)" fill="#d7d9d9" fill-rule="evenodd"/><path d="M2901.464,2133.6l63.479-36.933c2.309-1.155,4.04,0,4.04,2.306s-1.731,5.194-4.04,6.925l-63.479,36.358c-1.731,1.155-3.464.576-3.464-1.731A8.992,8.992,0,0,1,2901.464,2133.6Z" transform="translate(-1225.577 -886.498)" fill="#d7d9d9" fill-rule="evenodd"/><path d="M2901.464,2178.935l63.479-36.358c2.309-1.152,4.04-.576,4.04,1.733a8,8,0,0,1-4.04,6.924l-63.479,36.358c-1.731,1.73-3.464.576-3.464-1.731S2899.732,2180.665,2901.464,2178.935Z" transform="translate(-1225.577 -905.861)" fill="#d7d9d9" fill-rule="evenodd"/><path d="M2681.844,3289.661c.575-21.348-13.849-47.9-31.739-59.44-9.234-5.771-17.313-6.349-23.661-3.462h0c-36.936,19.046-298.937,186.979-315.672,195.059h-.577c-2.886,1.732-5.194,5.771-5.194,10.966,0,10.963,6.927,24.238,16.158,30.006q6.926,4.336,12.12,1.735v-.577c26.546-14.429,285.085-124.654,337.6-152.93h0C2677.227,3307.552,2681.267,3300.63,2681.844,3289.661Z" transform="translate(-974.794 -1363.894)" fill="#19ab0c" fill-rule="evenodd"/><path d="M2327,3419.865a63.334,63.334,0,0,1,6.349-3.465v-.576C2331.041,3417.557,2328.73,3418.711,2327,3419.865Zm6.349-4.041c.577,0,1.153-.577,1.731-.577l1.153-1.153C2335.08,3414.671,2334.5,3415.247,2333.349,3415.824Zm3.464-1.73.575-.577c1.154-.579,1.731-1.153,2.888-1.732h.576c3.462-2.308,8.077-5.192,12.7-8.079C2347.2,3407.165,2342,3411.208,2336.813,3414.094Zm325.482-180.055Zm0,0Zm0,0a12.66,12.66,0,0,1-2.888-1.732A12.66,12.66,0,0,0,2662.295,3234.039Zm-2.888-1.732a14.515,14.515,0,0,1-4.039-2.307A14.515,14.515,0,0,0,2659.407,3232.307Z" transform="translate(-984.097 -1365.98)" fill="#d0d1d1" fill-rule="evenodd"/><path d="M2326.775,3436.218c-1.73-2.885-4.619-5.193-6.923-6.926a9.624,9.624,0,0,0-6.351-2.308c-1.152,0-1.732.577-2.885,1.152l-4.618,2.31a10.274,10.274,0,0,1,3.464-7.5c.577,0,.577-.58,1.154-1.155h.576a60.243,60.243,0,0,0,6.927-4.042c1.732-1.155,4.036-2.306,6.349-4.04h0c1.154-.575,1.73-1.153,2.887-1.73h.573c5.2-2.885,10.387-6.924,16.736-10.388,75.6-46.742,249.882-158.124,281.625-174.283a.567.567,0,0,0-.579.578s.579-.578,1.151-1.155a18.455,18.455,0,0,1,8.082-1.73,30.848,30.848,0,0,1,11.543,2.886,14.4,14.4,0,0,0,4.04,2.309h0a12.674,12.674,0,0,0,2.887,1.731h0c6.925,5.192,13.271,13.273,18.465,21.351Z" transform="translate(-975.216 -1363.865)" fill="#8ef985" fill-rule="evenodd"/><path d="M2321.158,3606.587c-9.231-5.77-16.158-19.043-16.158-30.01.577-10.389,8.08-14.426,17.313-9.232,9.233,5.77,16.158,19.045,16.158,30.008C2337.895,3608.317,2330.394,3612.356,2321.158,3606.587Z" transform="translate(-974.794 -1507.689)" fill="#19ab0c" fill-rule="evenodd"/><path d="M2197,3617.815c0,8.654,5.2,18.465,12.119,23.082,3.463,2.311,6.927,2.311,9.234,1.152h0l63.481-33.471h0c2.309-1.73,4.039-4.037,4.039-8.654,0-8.082-5.194-18.467-12.119-22.506-3.463-2.311-6.925-2.889-9.233-1.156l-63.479,33.473h0C2198.732,3610.89,2197,3613.772,2197,3617.815Z" transform="translate(-929.121 -1511.99)" fill="#384e55" fill-rule="evenodd"/><path d="M2201.042,3609.735c-2.31,1.154-4.042,4.037-4.042,8.08a26.961,26.961,0,0,0,1.732,9.809l81.947-43.283c-1.731-2.883-4.616-5.193-6.925-6.922-3.463-2.311-6.925-2.889-9.233-1.156l-63.479,33.473Z" transform="translate(-929.121 -1511.99)" fill="#2c3c42" fill-rule="evenodd"/><path d="M1479.489,3541.144c47.9-27.7,112.534-42.7,181.209-42.7s132.732,15.006,180.63,42.7c43.86,25.395,67.52,57.133,67.52,89.451s-23.66,64.059-67.52,88.875c-47.9,27.7-111.956,43.281-180.63,43.281s-133.31-15.584-181.209-43.281c-43.281-24.816-66.941-56.559-66.941-88.875S1436.208,3566.538,1479.489,3541.144Zm455.908,89.451c0-40.4-27.124-81.369-80.795-112.533-106.763-61.75-281.045-61.75-388.385,0C1412.547,3549.226,1386,3590.2,1386,3630.595v74.445c0,40.973,26.548,81.371,80.217,112.535,107.34,61.75,281.623,61.75,388.385,0,53.671-31.164,80.795-71.562,80.795-112.535Z" transform="translate(-586.145 -1468.217)" fill="#87f97d" fill-rule="evenodd"/><path d="M1862,3922.714h0c68.674,0,132.733-15.58,180.632-43.279q6.059-3.466,12.119-6.928h0v-.576h0c10.387-6.928,19.62-13.852,27.123-21.93h0c-10.387,10.963-23.084,20.775-39.242,29.434C1994.733,3907.134,1930.674,3922.714,1862,3922.714Z" transform="translate(-787.447 -1628.182)" fill="#eee" fill-rule="evenodd"/><path d="M2243,3811.092h0c6.926-6.924,13.272-14.426,17.313-21.928h0A85.053,85.053,0,0,1,2243,3811.092Zm27.7-51.359Zm0-.576Zm0,0Zm0,0Zm0-.58Zm0,0v0Z" transform="translate(-948.574 -1589.274)" fill="#e2e3e3" fill-rule="evenodd"/><path d="M2292,3750.311v0Z" transform="translate(-969.296 -1585.044)" fill="#eee" fill-rule="evenodd"/><path d="M2291,3755.463c0-1.154.576-2.309.576-3.463h0C2291.577,3753.154,2291,3754.309,2291,3755.463Z" transform="translate(-968.874 -1586.736)" fill="#e2e3e3" fill-rule="evenodd"/><path d="M1908.849,3631.28v0Zm0-.578Zm0,0ZM1386,3625.509c2.309-38.668,28.855-77.332,80.217-107.344,53.67-30.582,124.076-46.166,194.482-46.166h0c-70.406,0-140.812,15.584-194.482,46.166-42.7,24.818-68.674,55.98-77.331,87.721h0v.576c-.577,2.885-1.154,5.193-1.73,8.082A70.536,70.536,0,0,0,1386,3625.509Zm518.81-17.891Zm0,0A103.782,103.782,0,0,0,1895,3588h0A103.782,103.782,0,0,1,1904.81,3607.618Zm-35.78-47.322a287.676,287.676,0,0,0-27.7-19.045,12.72,12.72,0,0,1-2.886-1.73c1.155.576,1.732,1.152,2.886,1.73a287.676,287.676,0,0,1,27.7,19.045Zm-31.163-20.775Zm0,0v0Zm-.577-.576Zm0,0Zm-11.542-5.773Zm-.578-.576Zm0,0Zm-.577,0Zm0,0c-23.084-11.541-49.63-19.623-77.907-25.391C1774.962,3512.972,1801.509,3521.054,1824.593,3532.595Z" transform="translate(-586.145 -1468.32)" fill="#eee" fill-rule="evenodd"/><path d="M2257.429,3660.313A127.571,127.571,0,0,0,2243,3643h0a127.571,127.571,0,0,1,14.428,17.313Z" transform="translate(-948.574 -1540.641)" fill="#6d8085" fill-rule="evenodd"/><path d="M2234.542,3635.387c-3.462-3.461-7.5-6.924-11.543-10.387h0c4.041,3.463,8.081,6.926,11.543,10.387Z" transform="translate(-940.115 -1533.027)" fill="#657276" fill-rule="evenodd"/><path d="M1660.764,3789.4c-65.789,0-131-13.852-182.94-40.4-4.04-2.307-7.5-4.039-11.542-6.348-64.058-36.934-90.026-88.295-76.754-136.771h-.577c8.656-31.74,34.626-62.9,77.331-87.721,53.67-30.582,124.076-46.166,194.482-46.166s140.235,15.584,193.9,46.166c107.34,62.328,107.34,162.742,0,224.492C1801,3773.819,1731.169,3789.4,1660.764,3789.4Zm0-26.549h0c68.674,0,132.732-15.58,180.631-43.281,16.158-8.656,28.855-18.467,39.243-29.43a85.049,85.049,0,0,0,17.313-21.93h0q8.656-14.719,10.387-29.436h0v-.576h0v-.574h0v-.58h0c0-1.15.578-2.309.578-3.463v-2.3h0v-.578h0a62.772,62.772,0,0,0-4.041-23.084h0a103.779,103.779,0,0,0-9.81-19.623,127.231,127.231,0,0,0-14.427-17.312c-3.463-3.461-7.5-6.924-11.541-10.387h0a287.93,287.93,0,0,0-27.7-19.045c-1.155-.578-1.732-1.154-2.885-1.73h-.577v-.576h-.577a107.407,107.407,0,0,0-11.542-5.773h0a.565.565,0,0,1-.577-.576h-.577c-23.084-11.541-49.631-19.623-77.909-25.391a413.715,413.715,0,0,0-85.986-8.656c-68.675,0-133.309,15-181.208,42.7-43.282,25.393-66.943,57.133-66.943,89.451h0c0,9.809,2.308,19.617,6.348,29.43h0c8.656,19.045,25.392,36.359,48.477,51.939h0a.566.566,0,0,0,.577.578h0c3.461,2.307,7.5,4.617,11.541,6.924,47.9,27.7,112.534,43.281,181.208,43.281ZM1387.22,3614.544c.577-2.889,1.155-5.2,1.731-8.082C1388.375,3609.347,1387.8,3611.655,1387.22,3614.544Z" transform="translate(-586.211 -1468.32)" fill="#87f97d" fill-rule="evenodd"/><path d="M1432,3650.155a75.212,75.212,0,0,0,10.387,37.51c10.966-19.045,30.01-36.934,56.556-51.939,47.9-27.7,112.533-42.7,181.208-42.7s132.732,15,180.632,42.7c26.545,15.006,45.589,32.895,56.554,51.939a70.474,70.474,0,0,0,10.966-37.51c0-32.318-23.662-64.059-67.52-89.451-47.9-27.7-111.958-42.705-180.632-42.705s-133.309,15-181.208,42.705C1455.661,3586.1,1432,3617.837,1432,3650.155Z" transform="translate(-605.598 -1487.774)" fill="#00b3a9" fill-rule="evenodd"/><path d="M1917.337,3687.665h0a79.576,79.576,0,0,0,8.656-20.775c-6.924-26.545-29.431-51.363-65.21-72.139-47.9-27.7-111.958-42.7-180.632-42.7s-133.309,15.006-181.208,42.7c-35.78,20.775-58.287,45.594-64.636,72.139a103,103,0,0,0,8.08,20.775h0c-1.154-2.887-2.885-5.193-4.04-8.08h0c-4.04-9.811-6.348-19.621-6.348-29.43,0-32.318,23.661-64.059,66.943-89.451,47.9-27.7,112.533-42.705,181.208-42.705s132.732,15,180.632,42.705c43.858,25.393,67.52,57.133,67.52,89.451h0v.576h0a19.563,19.563,0,0,1-.578,5.768h0v.582h0v.572h0v.582Q1925.993,3672.945,1917.337,3687.665Z" transform="translate(-605.598 -1487.774)" fill="#19ab0c" fill-rule="evenodd"/><path d="M1697.068,3861.395c-68.674,0-133.309-15.582-181.208-43.283a173.127,173.127,0,0,1-38.666-28.854h0c-1.731-1.732-3.461-4.041-5.194-5.771,10.388-13.273,25.393-25.395,45.014-36.937,46.168-26.543,108.494-41.549,175.438-41.549s129.269,15.006,175.437,41.549c21.929,12.7,38.666,27.125,49.054,42.131-7.5,8.08-16.735,15.006-27.125,21.928h0v.578h0l-12.118,6.926C1829.8,3845.813,1765.742,3861.395,1697.068,3861.395Z" transform="translate(-622.514 -1566.86)" fill="#f2f0ef" fill-rule="evenodd"/><path d="M1907.637,3764.574c-10.388-15.006-27.124-29.432-49.054-42.129-46.167-26.549-108.494-41.553-175.436-41.553s-129.271,15-175.438,41.553c-19.622,11.543-34.625,23.66-45.014,36.934a85.389,85.389,0,0,1-12.7-16.736c10.965-19.043,30.009-36.934,56.555-51.936,47.9-27.7,112.533-42.707,181.208-42.707s132.732,15.006,180.631,42.707c26.547,15,45.591,32.893,56.556,51.936C1920.911,3750.146,1914.562,3757.648,1907.637,3764.574Z" transform="translate(-613.21 -1542.756)" fill="#e5e6e5" fill-rule="evenodd"/><path d="M1700.874,3923.136c-68.674,0-133.309-15.582-181.208-43.281-4.039-2.311-8.079-4.617-11.542-6.928h0a.564.564,0,0,1-.577-.574h0A143.376,143.376,0,0,1,1481,3851a173.235,173.235,0,0,0,38.665,28.854c47.9,27.7,112.535,43.281,181.208,43.281ZM1481,3851Z" transform="translate(-626.322 -1628.604)" fill="#52c3c1" fill-rule="evenodd"/><path d="M1862,3939.207h0c68.674,0,132.733-15.58,180.632-43.279q6.059-3.469,12.119-6.928-6.06,3.463-12.119,6.928C1994.733,3923.627,1930.674,3939.207,1862,3939.207Z" transform="translate(-787.447 -1644.675)" fill="#f7f5f5" fill-rule="evenodd"/><path d="M1720.75,3939.207c-68.674,0-133.31-15.58-181.208-43.279-4.04-2.312-8.079-4.619-11.542-6.928,3.462,2.309,7.5,4.615,11.542,6.928,47.9,27.7,112.534,43.279,181.208,43.279ZM1528,3889Z" transform="translate(-646.198 -1644.675)" fill="#80cece" fill-rule="evenodd"/><path d="M2196,3888.577Zm0-.578Z" transform="translate(-928.698 -1644.25)" fill="#f7f5f5" fill-rule="evenodd"/><path d="M1527,3888Z" transform="translate(-645.775 -1644.251)" fill="#80cece" fill-rule="evenodd"/><path d="M1444.079,3712.616a103.011,103.011,0,0,1-8.079-20.773c6.349-26.549,28.855-51.363,64.636-72.139,47.9-27.7,112.533-42.705,181.208-42.705S1814.576,3592,1862.474,3619.7c35.78,20.775,58.287,45.59,65.212,72.139a79.648,79.648,0,0,1-8.656,20.773c-10.965-19.045-30.009-36.934-56.556-51.937-47.9-27.7-111.956-42.707-180.631-42.707s-133.309,15.006-181.208,42.707C1474.089,3675.683,1455.045,3693.571,1444.079,3712.616Z" transform="translate(-607.29 -1512.726)" fill="#8ef985" fill-rule="evenodd"/><path d="M1604.058,4104.393A315.33,315.33,0,0,1,1540,4079,315.33,315.33,0,0,0,1604.058,4104.393Z" transform="translate(-651.272 -1725.024)" fill="#c0c2c3" fill-rule="evenodd"/><path d="M1386,3784.168v0Z" transform="translate(-586.145 -1580.814)" fill="#d0d1d1" fill-rule="evenodd"/><path d="M1416.01,3923.608c-20.2-22.508-30.01-47.32-30.01-72.137V3818h0v33.473C1386,3876.288,1395.81,3901.1,1416.01,3923.608Z" transform="translate(-586.145 -1614.648)" fill="#c0c2c3" fill-rule="evenodd"/><path d="M1596.063,3977.375a455.632,455.632,0,0,1-57.132-12.119,315.451,315.451,0,0,1-64.058-25.395c-2.886-1.729-5.771-2.883-8.657-4.613-20.775-12.121-37.511-25.969-50.207-40.4-20.2-22.506-30.01-47.324-30.01-72.139V3750c.578,39.818,27.125,79.639,80.217,110.225,4.04,2.309,7.5,4.039,11.542,6.352,34.625,17.885,75.6,30.006,118.3,35.775Z" transform="translate(-586.145 -1585.889)" fill="#87f97d" fill-rule="evenodd"/><path d="M1386,3730.546v-6.924a70.586,70.586,0,0,1,1.156-10.965,141.629,141.629,0,0,0-1.156,16.158Zm2.886-25.969V3704h0Z" transform="translate(-586.145 -1566.437)" fill="#d4d6d5" fill-rule="evenodd"/><path d="M1477.758,3847.12c-4.039-2.309-7.5-4.041-11.542-6.348-53.092-30.588-79.639-70.406-80.217-110.227v-1.73a141.629,141.629,0,0,1,1.156-16.158c.576-2.885,1.153-5.2,1.73-8.08V3704h.578c-13.272,48.479,12.7,99.84,76.753,136.773C1470.256,3843.079,1473.719,3844.812,1477.758,3847.12Z" transform="translate(-586.145 -1566.437)" fill="#13bab2" fill-rule="evenodd"/><path d="M3950.385,3179.09c2.883,1.155,4.039,7.5,4.039,20.2,0,9.233,1.732,25.393-9.234,28.854-10.963,2.885-27.123.577-34.045-8.079-8.658-11.542-14.43-21.354-26.547-35.2-10.969-11.544-22.51-23.082-26.549-39.244-3.463-15,0-21.353,10.387-25.39,13.852-5.771,35.2,13.848,46.168,17.312C3923.836,3140.423,3946.922,3177.934,3950.385,3179.09Z" transform="translate(-1631.035 -1319.111)" fill="#2c3c42" fill-rule="evenodd"/><path d="M3988.128,3198.347v15.006s-16.158,12.118-38.664.576c-.576-1.73-3.463-21.93-3.463-21.93Z" transform="translate(-1668.781 -1349.91)" fill="#f6a0a6" fill-rule="evenodd"/><path d="M3675.706,3370s4.043,13.852,6.348,25.391c1.732,9.234,4.041,24.818.58,31.168-3.465,6.92-16.16,11.539-35.781,10.963-12.7-.578-32.318,7.5-46.168,15-13.85,6.924-42.705,9.811-57.711,7.5-17.311-2.307-35.2-12.7-37.51-20.2-2.885-6.926,1.152-14.426,42.129-31.16.578,0,57.709-17.316,77.906-38.668Z" transform="translate(-1482.166 -1425.186)" fill="#2c3c42" fill-rule="evenodd"/><path d="M3764.769,3342s-.578,10.965-.578,17.891c0,6.348-8.08,15.582-27.7,14.428-13.85-.578-23.084-4.615-22.508-16.158l.576-16.16Z" transform="translate(-1570.648 -1413.345)" fill="#f6a0a6" fill-rule="evenodd"/><path d="M3872.981,2543.183c-5.771-50.209-16.158-80.219-16.158-80.219s6.926-68.1,10.963-133.308c4.617-69.831,8.658-106.187-5.193-207.178,0,0-214.678-19.623-221.027,61.748-5.771,80.795,2.887,287.972,4.619,323.174,1.73,35.782,7.5,67.521,13.271,125.23,6.346,57.709,23.662,192.749,23.662,192.749,25.393,14.429,50.207,0,50.207,0s19.619-162.161,19.043-203.138c-1.156-50.205-13.85-90.025-13.85-90.025s5.773-66.943,10.965-124.653c5.191-58.287,9.811-85.988,10.963-111.379l5.2-2.31s2.885,100.417,4.617,136.2,6.926,69.829,15.58,136.2c7.5,57.71,31.74,180.053,31.74,180.053,25.395,14.43,40.975-1.153,40.975-1.153S3878.753,2592.812,3872.981,2543.183Z" transform="translate(-1539.204 -896.726)" fill="#1a202c" fill-rule="evenodd"/><path d="M3849,2388.631s55.979-25.972,83.678-49.631c0,0-25.967,35.2-60.018,50.21,0,0-15,124.649-14.426,122.342l-4.617-122.921Z" transform="translate(-1627.756 -989.173)" fill="#2c3c42" fill-rule="evenodd"/><path d="M3783,1611.581l8.08,74.446,70.406-3.463L3853.408,1596Z" transform="translate(-1599.846 -674.955)" fill="#f6a0a6" fill-rule="evenodd"/><path d="M3958.5,1672.858c26.547-1.155,39.816,2.309,51.363,24.815s16.156,90.026,20.2,124.652,5.2,58.863-9.234,62.9c-13.848,3.461-69.826,4.617-69.826,4.617Z" transform="translate(-1670.895 -707.375)" fill="#384e55" fill-rule="evenodd"/><path d="M3871.414,1710.633c-4.039-20.775-31.16-42.705-56.555-38.088a165.538,165.538,0,0,0-17.891,2.885c-2.885,12.119-36.934,20.2-69.826,12.7-9.812,2.309-42.129,8.656-50.209,10.965-23.66,8.079-33.471,31.163-36.934,107.916,0,0,1.73,173.131,1.154,207.756,57.707,24.814,118.881,25.392,152.352,18.467,70.408-13.273,79.641-42.128,79.641-42.128l-10.389-79.64S3880.074,1757.955,3871.414,1710.633Z" transform="translate(-1539.37 -707.063)" fill="#42616a" fill-rule="evenodd"/><path d="M3773.468,1656.915l.576,4.616a102.329,102.329,0,0,0,43.283,0c22.506-5.193,27.123-11.541,27.123-11.541V1644.8s5.2-2.309,8.656,6.348c2.885,8.657,2.885,10.966,2.885,10.966s2.885,15.58-24.236,23.66c-38.088,12.118-66.367-6.926-66.367-6.926l-10.387,2.31s8.656-21.353,11.541-25.393a7.665,7.665,0,0,1,6.926-3.464Z" transform="translate(-1588.004 -695.473)" fill="#1a202c" fill-rule="evenodd"/><path d="M3315.081,1528,3176,1600.714l69.252,188.71,129.268-72.713Z" transform="translate(-1343.143 -646.198)" fill="#42616a" fill-rule="evenodd"/><path d="M3320.574,1560,3204,1620.6l60.6,162.741,109.071-61.172Z" transform="translate(-1354.984 -659.73)" fill="#eee" fill-rule="evenodd"/><path d="M3257.048,1612.048l-1.154-2.308c-1.155-2.309,4.617-8.08,13.273-13.274h0a64.539,64.539,0,0,0,2.887,7.5Zm46.743-24.238a30.863,30.863,0,0,1-3.462-7.5,33.685,33.685,0,0,1,11.545-2.309c1.729,0,2.882,0,3.46,1.154a3.477,3.477,0,0,1,.576,2.31Z" transform="translate(-1376.87 -667.342)" fill="#39545b" fill-rule="evenodd"/><path d="M3259.155,1618.049l-1.155-3.463,15.006-8.079a9.1,9.1,0,0,1,.577,2.309l31.74-16.736a4.476,4.476,0,0,0-.575-1.73l12.116-6.349a16.343,16.343,0,0,1,1.731,3.462Z" transform="translate(-1377.822 -669.88)" fill="#c9cccc" fill-rule="evenodd"/><path d="M3306.938,1548.632c-.577-1.732-5.193-1.732-9.232,1.154l-8.082,4.041s-5.193-12.7-23.66-4.041-14.428,23.083-14.428,23.083-3.463,2.309-8.078,5.194c-4.615,2.309-8.079,6.348-7.5,8.08l.577,3.462,72.139-36.935A14.308,14.308,0,0,1,3306.938,1548.632Z" transform="translate(-1368.472 -654.133)" fill="#00b3a9" fill-rule="evenodd"/><path d="M3310.055,1562.886c-6.928,2.885-9.237,4.617-7.5,9.809,2.306,5.194,4.039,9.233,4.039,9.233l-31.742,16.737s-2.308-6.925-3.46-9.811-3.466-4.04-8.657-1.732l-1.731-1.73,49.63-25.393Z" transform="translate(-1379.09 -659.73)" fill="#00b3a9" fill-rule="evenodd"/><path d="M3274.848,1598.666s-2.308-6.925-3.46-9.811h0a3.845,3.845,0,0,0-4.039-2.885,8.2,8.2,0,0,0-3.463,1.153h-1.155l-1.731-1.73,49.63-25.393-.574,2.886c-5.2,2.308-8.082,4.04-8.082,6.925a6.262,6.262,0,0,0,.578,2.884c2.306,5.194,4.039,9.233,4.039,9.233Z" transform="translate(-1379.09 -659.73)" fill="#00ab94" fill-rule="evenodd"/><path d="M3320,1585.565a20.4,20.4,0,0,0-2.31-5.771c-1.154-3.462-10.967-1.155-21.354,4.04l-20.778,10.964c-10.384,5.194-18.461,12.119-16.731,15.582l1.729,5.77Z" transform="translate(-1378.072 -667.405)" fill="#00b3a9" fill-rule="evenodd"/><path d="M3586.344,1719c-32.318,2.884-46.168,8.655-69.83,52.516-26.545,46.744-76.754,132.154-83.1,143.119-8.654,15-10.385,37.512-2.883,51.361,7.5,12.7,30.01,18.467,55.977-10.387,30.588-34.626,87.143-118.882,87.143-118.882S3622.121,1773.248,3586.344,1719Z" transform="translate(-1448.78 -726.973)" fill="#f6a0a6" fill-rule="evenodd"/><path d="M3334.309,1988.2c-24.238-2.885-81.949-80.794-98.107-106.186-17.89-27.7-34.626-41.552-49.631-52.516-25.97-19.044-22.508-49.056-10.967-76.178,4.043-9.232,17.314-2.885,17.314-2.885l4.619,12.7,8.076,22.506c5.771,4.616,8.655,6.348,9.234,5.193.576-2.886-4.039-15-4.039-27.7,0-15,10.387-5.2,13.851.576,2.885,5.2,6.348,13.273,10.964,24.237,5.194,13.852,2.885,27.126,9.233,36.358s92.337,91.183,92.337,91.183Z" transform="translate(-1339.285 -739.369)" fill="#f6a0a6" fill-rule="evenodd"/><path d="M3550.758,1716c-19.041,0-42.7,2.885-60.594,26.546-17.891,23.085-90.605,151.2-90.605,151.2l-40.395-36.357s-25.971,14.428-31.164,43.859c0,0,19.621,31.165,36.359,50.207,17.311,19.045,36.354,31.741,52.514,25.97,15.58-5.77,31.74-17.889,65.211-65.211,34.047-47.322,70.982-102.724,70.982-102.724S3576.15,1755.244,3550.758,1716Z" transform="translate(-1407.424 -725.703)" fill="#384e55" fill-rule="evenodd"/><path d="M3685.491,1466s-17.312,26.546-15.582,28.854c2.309,2.885,15.006,5.194,15.006,5.194Z" transform="translate(-1551.967 -619.978)" fill="#f48e92" fill-rule="evenodd"/><path d="M3695.775,1427.616a16.513,16.513,0,0,0-16.158,16.16,16.13,16.13,0,0,0,16.158,16.159,15.778,15.778,0,0,0,16.158-16.159A16.13,16.13,0,0,0,3695.775,1427.616Zm0,37.513c-11.543,0-20.775-9.812-20.775-21.353a20.775,20.775,0,1,1,41.551,0C3716.551,1455.317,3707.318,1465.129,3695.775,1465.129Z" transform="translate(-1554.172 -601.792)" fill="#2c3c42" fill-rule="evenodd"/><path d="M3744.344,1336.335c-35.2,7.5-45.592,23.083-49.057,79.062-3.459,58.864,2.889,77.331,10.389,85.41,5.193,5.194,34.051,6.349,49.055,2.309,17.891-5.194,59.441-20.2,79.063-49.631,22.506-34.625,28.275-81.947,4.037-100.992C3803.785,1325.371,3758.77,1332.873,3744.344,1336.335Z" transform="translate(-1562.342 -563.604)" fill="#f6a0a6" fill-rule="evenodd"/><path d="M3755.512,1622.387,3754.357,1612s-17.314,9.81-36.357,8.079C3724.348,1623.542,3742.236,1624.118,3755.512,1622.387Z" transform="translate(-1572.357 -681.721)" fill="#f48e92" fill-rule="evenodd"/><path d="M3679,1452l62.9,8.08-2.885,4.617-60.02-8.08Z" transform="translate(-1555.864 -614.056)" fill="#2c3c42" fill-rule="evenodd"/><path d="M3675.662,1320.062c2.889.578,5.2,0,8.08-.577-2.307,5.194,0,11.542,4.041,15a19.8,19.8,0,0,0,16.16,1.731,12.626,12.626,0,0,0-1.734,10.966c1.734,8.079,10.387,14.426,18.467,13.273,0,8.656,0,16.159,9.234,20.2,0,0,5.2-21.93,23.66-19.045s20.775,26.547,9.236,40.4c-11.545,14.427-21.932,9.234-22.51,9.234,1.156,0,1.732,6.925,1.732,8.656a41.672,41.672,0,0,0,5.2,11.542c3.461,8.079,9.232,14.427,16.158,19.621,9.809,6.924,21.352,12.119,33.471,9.233a36.033,36.033,0,0,0,24.238-19.622c1.154-2.309,1.732-5.195,4.043-6.925,2.3-2.308,5.77-2.885,8.652-4.04a26.071,26.071,0,0,0,16.16-15c2.885-6.925,2.309-15.581-1.154-22.506a23.62,23.62,0,0,0,17.891-17.891c1.73-8.656-1.156-18.466-8.658-24.239,10.389-6.347,16.16-20.2,12.7-31.739-2.883-9.811-10.963-17.313-20.773-20.2-7.5-1.732-4.619-2.886-6.928-9.812-1.152-5.193-4.039-9.233-8.078-12.7-6.348-5.193-16.158-6.925-24.238-4.618a24.3,24.3,0,0,0-17.891-18.465c-4.039-1.155-8.078-1.732-12.117-.578-2.885.578-9.232,3.462-10.387,6.347-3.463-4.04-4.617-8.656-9.236-12.119a26.994,26.994,0,0,0-16.158-5.194,26.715,26.715,0,0,0-23.66,13.851,31.53,31.53,0,0,0-24.812-10.388,25.608,25.608,0,0,0-22.51,13.85c-4.039,8.08-2.885,19.044,3.463,25.393a25.906,25.906,0,0,0-13.85,12.119c-2.885,5.771-2.885,13.272,1.73,18.466,2.311,2.309,3.461,4.041,6.926,5.194C3673.355,1319.485,3674.51,1320.062,3675.662,1320.062Z" transform="translate(-1548.49 -524.823)" fill="#2c3c42" fill-rule="evenodd"/><path d="M3770.119,1486.238l.574-24.238c-6.922,0-12.117,5.193-12.693,12.119A12.19,12.19,0,0,0,3770.119,1486.238Z" transform="translate(-1589.274 -618.286)" fill="#2c3c42" fill-rule="evenodd"/></svg>