<svg xmlns="http://www.w3.org/2000/svg" width="421.621" height="311.45" viewBox="0 0 421.621 311.45"><g transform="translate(-21.625 170.075)"><g transform="translate(21.625 -170.075)"><path d="M421.188,277.93l-31.112-31.112a10.371,10.371,0,1,0-14.667,14.667l13.334,13.334H54.515v-224L67.4,63.7A10.529,10.529,0,0,0,82.515,49.037L51.4,17.925a10.463,10.463,0,0,0-14.667,0L5.625,49.037A10.371,10.371,0,0,0,20.292,63.7L34.07,49.926V285.041a10.338,10.338,0,0,0,10.222,10.222H388.743L375.41,308.6a10.53,10.53,0,0,0,15.111,14.667l31.112-31.112C425.188,288.6,425.188,281.93,421.188,277.93Z" transform="translate(-2.625 -14.925)" fill="#0fbf44"/><path d="M21.109,128.052a10.613,10.613,0,0,0,9.778,6.667c1.333,0,2.667,0,3.556-.889l37.334-14.222,12,12a10.767,10.767,0,0,0,13.334,1.333l43.556-29.778,30.223,7.111a9,9,0,0,0,9.333-2.667l36-33.778L239.78,91.163a10.258,10.258,0,0,0,13.778-1.333l51.557-53.779a10.085,10.085,0,0,0-.444-14.667A10.085,10.085,0,0,0,290,21.828L245.113,68.5,222,51.607a10.162,10.162,0,0,0-13.334.889L170,88.5l-29.334-6.667c-2.667-.889-5.778,0-8.445,1.778l-40,27.556L82,100.5a9.546,9.546,0,0,0-11.111-2.222l-44,16.889A9.531,9.531,0,0,0,21.109,128.052Z" transform="translate(58.337 -2.828)" fill="#0fbf44"/><path d="M289.616,45.032,259.838,81.478l-50.223,8a10.536,10.536,0,0,0-6.667,4l-21.334,27.556-45.779-32a10.033,10.033,0,0,0-12.445.444L85.613,118.812,70.5,102.367a10.332,10.332,0,0,0-14.222-.889l-32,25.778A10.549,10.549,0,0,0,22.5,141.923a10.107,10.107,0,0,0,14.667,1.333l24.445-20,14.667,16A10.838,10.838,0,0,0,90.5,140.59l39.556-30.667,47.556,33.334a10.2,10.2,0,0,0,6.222,1.778,10.946,10.946,0,0,0,8.445-4l24.889-32,49.779-8a9.728,9.728,0,0,0,6.222-3.556l32.445-39.556a10.492,10.492,0,0,0-1.333-14.667C299.839,40.143,293.172,40.588,289.616,45.032Z" transform="translate(58.279 75.748)" fill="#0fbf44"/></g></g></svg>