<svg xmlns="http://www.w3.org/2000/svg" width="932.259" height="705.03" viewBox="0 0 932.259 705.03"><g transform="translate(0)"><path d="M406.988,0V199.992H333.839c-32.684,0-59.142,3.891-79.374,13.229-19.454,8.56-34.24,25.68-44.356,50.582-9.338,24.9-14.007,60.7-14.007,106.61V510.485L132.29,380.529c9.338-7.782,22.567-14.785,40.465-20.233,17.9-6.225,38.131-8.56,59.92-8.56,48.247,0,88.712,14.785,121.4,43.578C386.755,424.886,403.1,466.907,403.1,520.6q0,74.705-46.691,128.4C325.279,684.8,278.588,702.7,217.112,702.7c-39.687,0-76.262-9.338-108.945-28.014-32.684-17.9-58.363-49.025-78.6-91.825C10.116,540.056,0,481.693,0,409.322v-24.9c0-90.269,13.229-162.639,40.465-219.446C66.923,108.945,106.61,66.923,159.527,40.465,211.665,13.229,277.032,0,355.628,0Z" transform="translate(0)" fill="#e2e8f0"/><path d="M675,705.7V506.482h73.149c32.683,0,59.919-4.669,79.374-13.229,20.232-9.338,34.24-26.458,44.355-51.36,9.339-24.9,14.008-60.7,14.008-106.61V195.21L949.7,325.944c-9.338,7.782-22.567,14.007-40.465,20.233a206.321,206.321,0,0,1-59.92,8.56q-72.369,0-121.4-44.356c-32.683-29.571-49.025-70.814-49.025-124.509,0-50.582,15.564-93.381,46.691-129.178C757.487,20.9,803.4,3,864.875,3c39.687,0,76.262,9.338,108.946,28.014s58.363,49.025,78.595,91.825c19.455,43.578,29.572,101.163,29.572,174.312v24.9c0,89.491-13.229,162.639-40.466,218.668-26.458,56.807-66.145,98.051-119.062,125.287Q844.254,705.7,726.36,705.7Z" transform="translate(-149.729 -0.665)" fill="#e2e8f0"/></g></svg>